<svg width="333" height="688" viewBox="0 0 333 688" fill="none" xmlns="http://www.w3.org/2000/svg">
<path d="M142.784 338.035C142.683 333.19 140.715 329.191 137.536 325.683C133.725 321.469 128.994 318.757 123.594 317.167C121.411 316.523 119.153 316.12 116.932 315.59C116.402 315.464 115.86 315.325 115.38 315.085C115.141 314.972 114.863 314.58 114.901 314.379C114.977 314.038 115.229 313.659 115.519 313.445C115.734 313.281 116.125 313.281 116.428 313.319C117.765 313.445 119.102 313.521 120.415 313.773C124.465 314.543 128.363 315.842 131.921 317.911C135.618 320.056 138.949 322.731 141.447 326.276C143.958 329.834 145.497 333.821 145.459 338.199C145.446 340.949 144.929 343.637 143.793 346.249C141.459 351.611 137.536 355.446 132.628 358.386C129.776 360.102 126.71 361.326 123.506 362.221C122.9 362.385 122.282 362.512 121.651 362.549C121.02 362.6 120.553 362.196 120.427 361.654C120.301 361.073 120.553 360.594 121.184 360.367C122.08 360.064 122.988 359.786 123.897 359.534C128.149 358.361 131.946 356.266 135.277 353.44C138.633 350.589 141.081 347.031 142.191 342.665C142.582 341.139 142.923 339.6 142.746 338.035H142.784Z" fill="white"/>
<path d="M278.629 661.264C278.743 663.977 277.822 666.235 276.005 668.304C273.519 671.131 270.315 672.253 266.794 672.367C262.997 672.493 259.805 670.803 257.938 667.484C256.714 665.302 256.335 662.791 257.345 660.217C259.048 655.902 262.164 653.404 266.63 652.458C267.173 652.344 267.716 652.256 268.245 652.142C271.589 651.423 277.266 654.35 278.314 658.034C278.465 658.564 278.642 659.094 278.692 659.637C278.743 660.179 278.654 660.734 278.629 661.277V661.264ZM260.019 663.106C259.918 664.229 260.423 665.163 260.902 666.046C262 668.09 263.867 669.238 266.088 669.15C269.381 669.024 272.333 667.875 274.415 665.062C275.689 663.333 276.106 659.965 274.92 658.161C273.507 656.003 270.567 654.754 267.993 655.145C266.328 655.397 264.877 656.18 263.426 656.987C260.978 658.35 260.65 660.797 260.019 663.106Z" fill="white"/>
<path d="M204.405 639.185C208.366 639.084 211.293 640.333 213.564 642.642C216.189 645.304 217.248 648.647 216.29 652.433C215.167 656.899 212.139 659.536 207.95 661.012C204.493 662.223 201.225 661.428 198.159 659.801C194.677 657.946 194.034 657.113 192.734 653.354C191.952 651.083 192.305 648.811 193.213 646.654C194.601 643.361 197.036 641.241 200.418 639.98C201.957 639.412 203.471 639.311 204.405 639.198V639.185ZM204.253 658.665C204.934 658.615 205.578 658.665 206.171 658.501C208.682 657.833 210.801 656.495 212.328 654.401C213.463 652.836 214.094 650.956 213.728 649.051C213.085 645.594 211.028 643.311 207.521 642.402C205.527 641.885 203.572 642.074 201.73 642.768C199.106 643.777 196.986 645.392 196.027 648.269C194.601 652.571 197.238 656.192 200.178 657.782C201.377 658.425 202.853 658.653 204.241 658.665H204.253Z" fill="white"/>
<path d="M26.2808 451.7C26.3313 453.34 25.7761 454.829 25.1327 456.267C23.9846 458.866 20.5402 460.948 17.8023 460.519C14.8248 460.052 12.6547 458.412 11.4309 455.548C10.2197 452.722 10.5225 449.971 11.822 447.322C13.2224 444.47 15.6575 442.83 18.7991 442.792C20.8304 442.767 22.786 443.562 24.1612 445.341C25.6247 447.233 26.306 449.34 26.2934 451.687L26.2808 451.7ZM23.8836 451.094C24.199 449.466 23.1266 448.116 21.9659 446.779C20.0103 444.533 16.0234 444.987 14.4841 447.738C13.2729 449.908 12.9323 452.33 13.9416 454.778C15.4051 458.349 19.4678 459.383 22.3191 456.229C23.5808 454.841 23.8458 453.176 23.8836 451.107V451.094Z" fill="white"/>
<path d="M60.4471 412.096C60.6489 416.739 57.9237 420.814 53.3943 422.101C49.3569 423.249 45.2691 421.369 43.528 417.243C42.4934 414.808 42.4429 412.348 43.2504 409.862C43.7046 408.475 44.5625 407.301 45.635 406.393C46.8209 405.383 48.2088 404.601 49.5335 403.756C49.7859 403.592 50.1265 403.478 50.4293 403.466C53.6466 403.239 56.5485 403.819 58.605 406.62C60.0559 408.588 60.2956 409.332 60.4597 412.096H60.4471ZM57.9742 412.146C58.1508 410.481 57.3433 408.916 56.0059 407.566C54.0377 405.573 50.013 405.346 47.9691 407.175C45.1934 409.635 44.2723 412.373 45.6476 416.335C46.7452 419.502 50.4924 420.915 53.3943 419.767C56.6242 418.492 58.1382 414.896 57.9868 412.146H57.9742Z" fill="white"/>
<path d="M330.673 631.06C329.323 630.404 327.948 629.823 326.762 628.877C326.22 628.448 325.551 628.158 324.895 627.893C323.292 627.224 321.665 626.631 320.075 625.95C318.788 625.395 317.539 624.764 316.189 624.12C316.189 623.363 316.177 622.657 316.189 621.95C316.252 618.784 315.874 615.68 314.915 612.639C314.625 611.718 314.234 610.885 313.641 610.141C313.35 609.775 312.997 609.435 312.783 609.018C311.786 607.088 310.057 605.952 308.266 604.993C306.184 603.883 304.027 602.886 301.667 602.47C298.955 601.978 296.267 601.335 293.542 600.981C289.795 600.489 286.01 600.237 282.25 599.821C277.077 599.253 271.904 598.647 266.744 598.029C264.889 597.814 263.022 597.575 261.193 596.868C261.23 596.237 261.205 595.682 261.306 595.152C261.533 593.992 261.811 592.843 262.076 591.695C262.694 589.008 263.35 586.321 263.918 583.633C264.107 582.712 264.145 581.753 264.195 580.82C264.233 580.063 263.905 579.419 263.287 578.99C262.707 578.586 262.088 578.258 261.47 577.905C261.003 577.64 260.537 577.375 260.019 577.085C260.171 576.303 260.297 575.609 260.436 574.915C261.054 571.988 261.723 569.061 262.265 566.121C263.11 561.541 263.754 556.936 264.662 552.369C266 545.631 266.429 538.768 267.362 531.98C267.88 528.233 268.296 524.473 268.838 520.739C269.532 515.982 270.378 511.251 271.021 506.482C271.69 501.561 272.207 496.615 272.75 491.682C273.027 489.171 273.204 486.648 273.418 484.137C273.734 480.529 274.062 476.908 274.352 473.299C274.478 471.647 274.39 469.981 274.63 468.354C274.869 466.726 274.68 465.099 274.819 463.458C275.071 460.632 275.033 457.781 275.008 454.942C274.945 447.839 274.63 440.748 274.087 433.67C273.708 428.712 273.179 423.779 272.586 418.845C272.245 415.956 271.526 413.105 271.185 410.216C270.87 407.465 270.289 404.778 269.709 402.09C269.179 399.63 268.46 397.195 267.917 394.735C266.908 390.104 265.508 385.575 264.019 381.096C262.871 377.639 261.823 374.169 261.76 370.498C261.685 365.842 261.71 361.187 261.659 356.544C261.622 353.314 261.584 350.084 261.445 346.867C261.281 342.855 261.003 338.83 260.802 334.818C260.587 330.654 260.448 326.478 260.171 322.314C259.956 319.085 259.641 315.867 259.288 312.663C258.695 307.25 258.051 301.85 257.395 296.45C256.966 292.854 256.487 289.258 256.045 285.663C255.578 281.827 255.174 277.979 254.67 274.144C254.228 270.712 253.66 267.28 253.194 263.848C252.664 259.937 252.045 256.064 251.175 252.203C249.938 246.74 248.652 241.302 247.037 235.94C245.989 232.47 244.74 229.076 243.201 225.771C243.542 224.9 243.933 224.03 244.198 223.121C245.119 220.106 246.04 217.09 246.847 214.05C247.289 212.384 247.667 210.669 247.806 208.94C248.21 203.893 248.084 198.872 247.049 193.876C246.608 191.756 245.876 189.788 244.98 187.857C244.021 185.814 242.381 184.262 240.753 182.811C238.735 181.019 236.363 179.732 233.663 179.24C232.729 179.076 231.783 178.963 230.849 178.925C229.096 178.874 227.392 178.975 225.979 180.287C225.374 180.855 224.604 181.259 223.847 181.801C223.784 181.713 223.342 182.546 223.279 182.811C223.065 183.656 222.964 184.564 222.648 185.385C222.497 185.75 222.283 186.078 222.018 186.343C221.992 186.583 221.929 186.823 221.79 187.075C221.45 186.987 221.122 186.936 220.794 186.899C220.617 186.911 220.44 186.899 220.251 186.861C218.397 186.798 216.618 187.391 214.902 187.832C213.35 186.091 211.546 185.574 209.502 186.255C208.24 186.671 207.016 187.264 205.83 187.87C203.37 189.119 200.998 190.52 198.866 192.311C196.077 194.658 193.579 197.282 191.397 200.171C188.457 204.057 187.22 208.486 187.952 213.318C188.47 216.788 189.681 220.03 191.813 222.882C194.134 225.973 196.948 228.37 200.594 229.808C202.663 230.616 204.808 231.083 206.928 231.638C210.057 232.458 213.198 233.19 216.428 233.593C218.535 233.858 220.642 234.249 222.699 234.792C224.755 235.334 226.749 236.079 228.389 237.568C229.865 238.918 230.9 240.583 232.048 242.198C232.603 242.98 232.553 243.813 232.792 244.62C233.07 245.516 233.6 246.324 233.978 247.194C235.379 250.386 236.35 253.717 237.271 257.06C237.978 259.647 238.646 262.246 239.202 264.858C239.732 267.318 239.996 269.841 240.539 272.302C242.255 280.187 242.987 288.199 243.517 296.223C243.845 301.169 243.87 306.14 243.756 311.111C243.617 317.356 243.062 323.564 242.608 329.771C242.52 330.919 242.28 332.055 242.116 333.152C241.346 333.316 241.17 332.761 240.88 332.433C239.252 330.616 237.763 328.648 236.01 326.957C233.739 324.775 231.354 322.693 228.856 320.775C226.673 319.097 224.301 317.646 221.942 316.233C219.986 315.072 217.955 314.025 215.886 313.079C212.883 311.704 209.83 310.429 206.764 309.193C203.584 307.906 200.355 307.023 196.986 306.556C196.633 306.506 196.305 306.279 195.964 306.14C195.964 305.105 196.368 304.348 196.759 303.579C198.576 299.995 200.594 296.513 202.146 292.791C202.575 291.769 203.004 290.747 203.572 289.801C205.515 286.559 207.496 283.341 209.514 280.149C211.571 276.881 213.728 273.677 215.747 270.396C217.021 268.315 218.132 266.132 219.305 263.987C219.381 263.848 219.431 263.697 219.482 263.546C219.658 262.864 219.002 262.006 218.321 262.12C217.715 262.221 217.084 262.397 216.542 262.688C215.495 263.243 214.498 263.874 213.501 264.53C209.943 266.876 206.411 269.248 202.853 271.582C201.086 272.743 199.32 273.942 197.478 275.002C195.232 276.301 192.911 277.5 190.614 278.698C186.35 280.919 182.186 283.316 178.035 285.764C173.821 288.249 169.557 290.621 165.242 292.93C161.217 295.087 157.319 297.485 153.445 299.894C151.78 300.929 150.102 301.181 148.272 300.828C145.472 300.286 142.645 300.071 139.807 300.033C133.889 299.958 127.972 299.995 122.067 300.487C116.163 300.979 110.309 301.787 104.656 303.654C103.231 304.121 101.78 304.5 100.367 304.966C98.4993 305.585 96.6572 306.241 94.8025 306.884C94.0582 307.136 93.3011 307.338 92.5567 307.629C90.2857 308.512 88.103 309.622 85.7437 310.253C85.3652 310.354 84.9993 310.518 84.646 310.707C80.6213 312.877 76.5839 315.009 72.597 317.23C68.5975 319.463 64.8377 322.062 61.3176 324.977C55.6022 329.708 50.0887 334.654 44.8401 339.902C41.9508 342.791 39.0364 345.693 36.6896 349.087C34.7214 351.939 32.6523 354.727 30.621 357.541C30.0658 358.31 29.4476 359.029 28.9177 359.812C28.6275 360.228 28.6906 360.72 29.0565 361.111C29.4224 361.49 29.9018 361.654 30.3434 361.401C30.8733 361.098 31.3906 360.707 31.8069 360.24C36.9546 354.55 42.4429 349.251 48.8018 344.911C53.962 341.391 59.3115 338.237 65.0269 335.701C69.733 333.619 74.704 332.345 79.6119 330.932C81.4161 330.414 83.3213 330.213 85.1886 329.935C86.4124 329.758 87.6741 329.62 88.8979 330.313C88.7843 330.566 88.7339 330.818 88.5825 330.944C86.0465 333.19 83.5105 335.436 80.9619 337.656C80.432 338.123 79.7886 338.477 79.2839 338.969C77.1895 341 75.1204 343.044 73.0638 345.113C71.0704 347.132 69.14 349.213 67.1339 351.207C64.169 354.147 61.4185 357.301 58.7185 360.48C56.4728 363.13 54.2648 365.805 52.0947 368.504C50.013 371.078 47.8933 373.64 45.963 376.314C43.5658 379.632 41.3074 383.052 39.5032 386.761C38.2667 389.31 36.8158 391.745 35.4658 394.243C35.2387 394.659 35.0368 395.088 34.8476 395.517C34.6583 395.984 34.671 396.451 34.999 396.854C35.2892 397.22 35.9705 397.359 36.5256 397.107C36.942 396.905 37.3457 396.64 37.7242 396.362C43.9064 391.707 50.4041 387.505 57.0405 383.544C60.6237 381.411 64.3078 379.443 68.055 377.614C69.5437 376.895 71.0451 376.188 72.5844 375.57C74.704 374.725 76.8489 373.955 79.0063 373.198C80.9367 372.517 82.8671 371.797 84.8353 371.242C86.5007 370.775 88.2166 370.435 89.9198 370.195C91.1563 370.018 92.4306 370.082 93.6923 370.094C94.0329 370.094 94.3736 370.309 94.7647 370.447C94.5628 370.801 94.4745 371.028 94.3231 371.204C93.0614 372.706 91.7745 374.195 90.5254 375.709C87.7371 379.115 84.911 382.509 82.1984 385.979C79.9652 388.83 77.7825 391.719 75.7133 394.697C73.9596 397.22 72.4204 399.882 70.7423 402.456C70.4774 402.873 69.9979 403.15 69.5816 403.541C68.9003 402.759 68.3451 402.09 67.7648 401.447C65.2919 398.659 62.1503 396.867 58.6302 395.845C54.6055 394.672 50.5555 394.722 46.5307 396.022C42.506 397.321 39.2635 399.668 36.677 403.011C35.5037 404.538 34.6205 406.203 34.0149 407.995C33.0812 410.708 32.6144 413.546 33.1696 416.385C33.8761 419.968 35.1252 423.312 37.7873 426.037C39.4527 427.74 41.1686 429.317 43.3513 430.276C44.4994 430.781 45.698 431.159 46.884 431.588C49.6092 432.56 52.3849 432.938 55.2615 432.371C55.4634 432.333 55.7031 432.459 55.905 432.509C55.8924 432.711 55.9302 432.888 55.8545 433.014C55.2868 434.124 55.6022 434.957 56.5611 435.676C57.3812 436.294 58.1129 437.026 58.933 437.644C59.3494 437.96 59.8667 438.137 60.4723 438.439C61.0527 437.783 61.633 437.241 62.0494 436.597C62.9956 435.184 64.3582 434.238 65.6325 433.178C66.2886 432.636 66.9952 432.573 67.8279 432.976C67.6891 433.304 67.6386 433.544 67.4998 433.708C66.3265 435.096 65.1657 436.484 63.9545 437.834C61.5321 440.534 59.0718 443.196 56.6494 445.883C53.9115 448.924 51.1863 451.977 48.4611 455.018C46.1901 457.541 43.9191 460.052 41.648 462.563C40.6513 463.673 39.6546 464.796 38.6579 465.906C38.4181 466.171 38.1153 466.385 37.8756 466.6C37.4088 466.247 37.4719 465.957 37.699 465.692C38.6957 464.468 39.7177 463.269 40.6892 462.033C41.1181 461.478 41.5093 460.872 41.8247 460.254C42.1401 459.661 42.1149 459.005 41.6859 458.462C40.563 457.062 39.541 455.522 37.6107 455.321C37.535 455.144 37.4593 455.068 37.4719 455.005C37.8882 449.429 36.942 444.193 33.8887 439.386C31.1635 435.108 27.5929 432.03 22.6724 430.541C20.1869 429.784 17.714 429.645 15.1906 430.037C13.235 430.339 11.3425 430.945 9.67712 432.017C6.22012 434.238 3.60844 437.178 1.9935 441.038C-0.656027 447.422 -0.656027 453.756 1.94303 460.14C4.06265 465.338 7.68366 469.111 12.7682 471.47C14.5724 472.303 16.4397 472.858 18.4584 472.883C19.8589 472.896 21.2719 472.934 22.521 472.959C23.543 474.183 24.4261 475.293 25.385 476.34C26.3439 477.4 26.9369 477.438 27.9714 476.466C29.2457 475.28 30.4443 474.031 31.6934 472.833C31.9962 472.542 32.3999 472.353 32.8037 472.088C32.9046 472.404 33.0182 472.555 32.9803 472.681C32.892 472.971 32.8037 473.312 32.6018 473.527C30.1415 475.999 28.2995 478.964 26.2303 481.74C24.956 483.443 23.6817 485.147 22.7481 487.077C22.4831 487.619 22.0794 488.099 21.7514 488.604C21.0953 488.44 20.5528 488.326 20.0355 488.162C16.4902 487.014 12.8061 486.61 9.13459 486.068C8.74347 486.005 8.35235 485.929 7.96123 485.929C7.00236 485.941 6.32105 486.56 6.27059 487.519C6.23273 488.301 6.19488 489.121 6.34629 489.878C6.95189 492.805 7.6332 495.719 8.3145 498.634C9.00843 501.599 10.5981 504.147 12.2131 506.671C12.907 507.768 13.9668 507.895 15.0897 507.188C15.8972 506.683 16.6668 506.154 17.4617 505.649C18.3827 505.056 19.3416 504.526 20.2374 503.883C22.0289 502.596 23.7701 501.258 25.5743 499.921C26.1799 500.262 26.735 500.564 27.2775 500.867C29.2079 501.94 31.1383 502.999 33.2453 503.706C36.6013 504.841 39.9069 504.804 43.0864 503.138C44.8275 502.23 46.3793 501.006 47.7672 499.58C51.0475 496.237 53.6087 492.351 56.2961 488.553C59.4756 484.036 62.5667 479.469 65.7461 474.952C66.5914 473.741 67.4241 472.479 68.6606 471.596C68.9255 471.722 69.1779 471.785 69.3419 471.937C71.1208 473.489 72.8872 475.066 74.6662 476.618C75.8017 477.602 76.9119 478.611 78.0979 479.52C79.5867 480.642 80.3437 480.605 81.9713 479.557C82.4255 479.267 82.8671 478.964 83.3213 478.662C86.1979 481.008 88.8979 483.393 91.5222 485.954C90.7525 487.115 90.0334 488.149 89.3647 489.197C87.611 491.922 86.1222 494.786 84.9867 497.826C84.3937 499.416 84.2423 501.056 84.4694 502.722C84.5325 503.176 84.6586 503.693 84.9362 504.021C85.8699 505.144 86.9927 506.027 88.5951 505.762C89.5161 505.611 90.4624 505.447 91.3455 505.132C93.4525 504.375 95.2315 503.088 96.9221 501.637C97.3259 501.292 97.9399 501.04 98.7642 500.88C98.6633 501.22 98.6002 501.511 98.4992 501.788C97.881 503.403 97.225 505.005 96.6572 506.646C96.0768 508.311 95.875 510.014 96.2913 511.768C96.7203 513.547 97.8558 514.43 99.66 514.455C101.817 514.493 103.685 513.61 105.388 512.475C107.482 511.087 109.602 509.686 111.267 507.743C111.482 507.504 111.823 507.176 112.34 507.516C112.088 508.16 111.848 508.803 111.558 509.447C110.599 511.617 109.955 513.888 109.463 516.197C109.097 517.912 109.097 519.654 109.615 521.357C110.22 523.363 111.961 524.372 113.993 523.981C115.33 523.729 116.554 523.237 117.689 522.492C119.67 521.193 121.512 519.704 123.14 517.975C123.947 517.118 124.742 516.26 125.537 515.414C125.827 515.515 126.067 515.54 126.269 515.667C128.388 517.017 130.508 518.379 132.628 519.754C136.35 522.177 140.299 524.044 144.626 525.154C149.168 526.328 153.71 526.227 158.227 525.47C163.917 524.511 169.38 522.707 174.541 520.082C176.648 519.01 178.78 517.975 180.862 516.865C182.666 515.894 184.47 514.91 186.199 513.812C188.053 512.626 189.895 511.377 191.598 509.976C194.879 507.276 198.058 504.463 201.276 501.675C204.606 498.785 207.912 495.833 210.94 492.616C211.18 492.363 211.533 492.225 211.924 491.972C212.29 493.625 212.454 495.089 212.176 496.603C212.025 497.461 211.949 498.331 211.899 499.189C211.647 503.126 211.432 507.049 211.18 510.986C210.801 516.575 209.918 522.114 209.666 527.703C209.64 528.17 209.502 528.637 209.439 529.103C209.312 530.037 209.224 530.983 209.098 531.917C208.732 534.655 208.454 537.405 207.95 540.118C207.193 544.143 206.272 548.142 205.414 552.154C205.035 553.921 204.518 555.674 204.266 557.466C203.887 560.216 203.067 562.853 202.525 565.553C202.31 566.626 201.768 567.446 200.96 568.115C199.989 568.935 199.206 569.881 198.5 570.953C197.175 572.959 196.443 575.167 195.838 577.476C195.005 580.668 194.639 583.986 193.504 587.103C193.012 588.44 192.545 589.778 192.179 591.153C191.005 595.581 190.223 600.085 189.618 604.615C189.441 605.914 189.656 607.29 189.857 608.602C190.072 610.04 190.942 611.012 192.393 611.415C193.075 611.605 193.731 611.87 194.399 612.109C196.04 612.677 197.655 613.295 199.32 613.787C200.607 614.166 201.957 614.279 203.231 614.683C204.556 615.087 205.931 615.377 207.269 616.058C206.852 617.27 206.776 618.481 205.944 619.389C204.846 619.717 203.925 619.112 202.954 618.872C201.957 618.632 201.011 618.216 200.001 618.039C196.519 617.408 195.522 618.014 194.5 621.774C194.362 622.291 194.374 622.871 194.362 623.427C194.336 624.12 194.362 624.827 194.362 625.546C193.794 625.874 193.264 626.215 192.709 626.505C190.084 627.88 187.914 629.811 186.022 632.044C184.483 633.848 183.309 635.917 182.413 638.125C181.354 640.712 180.748 643.437 180.597 646.175C180.458 648.736 180.849 651.335 181.429 653.871C181.442 653.947 181.48 654.022 181.505 654.098C182.136 656.647 183.246 658.981 184.609 661.214C187.183 665.428 190.703 668.62 195.093 670.765C198.298 672.317 201.705 673.288 205.326 673.351C209.439 673.439 213.287 672.43 216.92 670.575C218.106 669.97 219.254 669.213 220.239 668.33C221.576 667.131 222.8 665.781 223.948 664.406C225.525 662.526 226.812 660.469 227.342 658.022C227.405 657.719 227.569 657.429 227.695 657.151C228.452 655.486 228.604 653.694 228.793 651.915C229.07 649.14 228.591 646.427 227.985 643.714C227.216 640.27 225.941 637.103 223.658 634.365C223.431 634.1 223.304 633.747 223.128 633.444C223.33 633.331 223.393 633.28 223.468 633.255C223.62 633.217 223.771 633.192 223.935 633.167C225.626 632.914 226.03 632.561 226.32 631.085C226.572 629.773 226.837 628.461 227.039 627.136C227.367 625.041 227.039 624.587 224.995 624.272C224.844 624.247 224.68 624.221 224.528 624.209C222.547 624.032 220.68 623.502 218.838 622.745C217.501 622.19 216.454 621.584 216.163 620.07C216.05 619.465 215.596 619.162 214.965 619.162C214.851 619.276 214.675 619.377 214.649 619.503C214.22 621.61 214.927 623.275 216.744 624.297C218.195 625.117 219.734 625.698 221.374 626.063C222.358 626.278 223.342 626.53 224.352 626.783C224.389 628.12 223.923 629.18 223.532 630.366C222.447 630.24 221.425 630.202 220.44 629.987C219.847 629.861 219.191 629.571 218.762 629.155C216.592 627.048 213.779 626.114 211.066 625.117C207.319 623.742 203.408 623.338 199.434 624.221C198.765 624.373 198.084 624.448 197.377 624.562C196.809 623.162 197.352 622.14 197.919 621.055C199.383 620.928 200.758 621.105 202.121 621.585C203.307 622.001 204.493 622.367 205.805 622.304C206.802 622.253 207.445 621.812 207.937 621.055C208.505 620.171 208.745 619.187 208.795 618.14C208.82 617.623 208.959 617.118 209.073 616.487C211.192 616.828 213.034 617.459 214.876 618.153C215.305 618.317 215.734 618.519 216.176 618.62C217.248 618.872 218.321 619.061 219.393 619.313C222.913 620.159 226.421 621.055 229.954 621.875C232.477 622.468 235.038 622.922 237.561 623.54C240.854 624.335 244.11 625.256 247.39 626.076C250.355 626.82 253.345 627.489 256.31 628.221C258.379 628.726 260.423 629.306 262.492 629.811C265.621 630.568 268.763 631.287 271.904 632.019C271.917 632.17 271.942 632.321 271.955 632.46C271.614 632.511 271.248 632.637 270.92 632.586C268.826 632.246 266.731 631.829 264.624 631.501C261.887 631.085 261.104 631.577 260.183 634.138C260.019 634.58 259.906 635.047 259.792 635.501C259.439 636.847 259.519 638.142 260.032 639.387C259.792 639.538 259.552 639.765 259.275 639.854C257.13 640.535 255.326 641.847 253.585 643.159C250.039 645.834 246.835 648.875 244.942 653.025C244.841 653.24 244.728 653.442 244.589 653.644C242.76 656.407 242.179 659.624 241.574 662.778C241.246 664.545 241.397 666.399 241.372 668.216C241.372 668.595 241.485 668.986 241.586 669.364C241.801 670.197 242.103 671.017 242.267 671.862C242.785 674.651 244.236 676.985 245.788 679.281C246.873 680.871 248.45 681.943 249.838 683.217C250.784 684.101 251.894 684.668 253.055 685.16C253.635 685.4 254.228 685.615 254.821 685.854C257.685 687.04 260.612 687.873 263.766 687.431C264.158 687.381 264.561 687.444 264.952 687.431C266.05 687.356 267.16 687.368 268.245 687.179C272.737 686.397 276.901 684.795 280.61 682.082C281.758 681.249 283.007 680.505 283.991 679.521C286.174 677.351 288.104 674.966 289.694 672.317C290.426 671.105 291.17 669.856 291.612 668.532C292.974 664.469 293.769 660.305 293.164 656.003C292.848 653.745 292.444 651.511 291.233 649.493C290.312 647.954 289.505 646.339 288.659 644.799C289.341 642.957 290.047 641.128 290.691 639.273C291.17 637.873 290.729 637.04 289.265 636.611C286.994 635.942 284.71 635.349 282.427 634.706C282.162 634.63 281.771 634.63 281.972 634.126C282.666 634.126 283.373 634.075 284.054 634.138C284.597 634.189 285.127 634.416 285.669 634.504C287.764 634.87 289.871 635.223 291.965 635.564C292.823 635.703 293.681 635.841 294.539 635.93C297.125 636.207 299.712 636.573 302.298 636.712C303.8 636.788 305.25 637.002 306.689 637.368C306.853 637.81 307.029 638.163 307.105 638.541C308.102 643.197 310.045 647.512 311.799 651.903C311.887 652.117 311.95 652.357 312.064 652.559C312.745 653.732 313.754 653.947 315.066 653.404C316.58 652.773 317.628 651.612 318.814 650.578C321.009 648.66 323.141 646.692 325.261 644.698C328.2 641.948 330.194 638.605 332.023 635.11C332.932 633.356 332.477 632.132 330.699 631.262L330.673 631.06ZM206.549 627.035C207.559 627.186 208.543 627.489 209.552 627.678C211.041 627.969 212.391 628.549 213.615 629.457C214.119 629.823 214.7 630.076 215.242 630.404C216.466 631.135 217.564 631.981 218.485 633.104C219.734 634.63 221.046 636.069 222.093 637.759C223.468 640.005 224.465 642.364 224.831 644.976C224.869 645.291 224.894 645.607 224.97 645.91C225.866 649.14 225.26 652.268 224.554 655.448C223.519 660.103 220.567 663.384 217.122 666.349C216.832 666.601 216.479 666.816 216.138 667.005C214.208 668.065 212.202 669.011 210.082 669.579C208.732 669.945 207.281 669.982 205.944 670.159C202.121 669.97 198.639 669.087 195.283 667.257C192.709 665.857 190.841 663.8 188.861 661.807C188.268 661.201 187.813 660.419 187.41 659.662C185.013 655.145 183.423 650.389 183.902 645.203C184.142 642.655 184.508 640.106 185.959 637.772C187.031 636.043 187.94 634.252 189.391 632.75C194.122 627.842 199.875 626.051 206.537 627.035H206.549ZM223.91 195.137C223.948 195.276 224.364 194.645 224.629 194.115C225.033 193.295 225.702 193.005 226.383 193.068C226.358 192.929 226.332 192.791 226.307 192.652C227.682 193.32 228.755 193.775 229.752 194.355C230.837 194.986 231.859 195.705 232.881 196.437C234.962 197.926 235.959 199.919 235.82 202.518C235.719 204.638 235.618 206.757 235.139 208.713C234.193 209.42 233.297 210.038 232.477 210.744C231.606 211.514 230.572 211.842 229.474 212.006C229.02 212.069 228.477 212.069 228.099 211.88C225.941 210.782 223.544 210.063 221.98 208.032C221.601 207.54 221.059 207.174 220.592 206.757C219.406 205.685 218.977 204.284 218.901 202.745C218.876 202.354 218.889 201.925 219.04 201.584C220.138 199.149 221.488 196.891 223.923 195.15L223.91 195.137ZM243.226 272.63C242.659 269.286 241.965 265.968 241.208 262.675C240.463 259.458 239.618 256.266 238.735 253.074C237.889 250.033 236.703 247.106 235.341 244.254C234.962 243.472 234.571 242.69 234.256 241.882C232.3 236.911 228.768 233.669 223.569 232.42C220.731 231.739 217.841 231.297 214.977 230.742C212.656 230.288 210.322 229.859 208.013 229.354C206.625 229.051 205.262 228.66 203.912 228.256C197.566 226.402 193.327 222.402 191.233 216.056C190.211 212.952 189.933 209.886 190.892 206.783C191.321 205.37 191.952 203.956 192.759 202.733C195.573 198.468 199.181 194.923 203.42 192.109C205.767 190.557 208.354 189.321 211.041 188.387C211.861 188.11 212.416 188.337 212.82 189.334C211.987 190.292 211.268 191.226 210.435 192.046C209.893 192.589 209.237 193.081 208.543 193.409C206.474 194.406 204.594 195.73 202.739 197.055C201.856 197.686 201.074 198.544 200.481 199.44C199.131 201.471 197.907 203.591 197.251 205.988C196.633 208.271 196.014 210.555 196.216 212.965C196.481 216.144 198.147 218.567 200.291 220.749C201.301 221.784 202.487 222.541 203.837 223.033C204.076 223.121 204.468 222.983 204.695 222.819C205.061 222.554 205.035 222.137 204.821 221.759C204.707 221.557 204.556 221.368 204.392 221.204C203.837 220.648 203.269 220.106 202.714 219.538C201.452 218.264 200.102 217.103 199.358 215.337C198.664 213.722 198.475 212.094 198.752 210.492C199.206 207.767 200.064 205.155 201.376 202.682C202.764 200.083 204.884 198.304 207.256 196.727C207.685 197.206 207.344 197.547 207.205 197.875C206.083 200.563 205.061 203.275 204.657 206.215C204.076 210.429 205.174 214.226 207.571 217.595C208.543 218.97 209.981 220.144 211.445 221.027C213.249 222.112 215.293 222.844 217.261 223.639C218.75 224.244 220.34 224.257 221.929 224.093C222.131 224.068 222.333 223.916 222.547 223.815C222.585 223.02 221.992 222.919 221.5 222.755C220.011 222.251 218.472 221.872 217.034 221.241C215.381 220.522 213.728 219.702 212.24 218.705C209.779 217.065 208.354 214.592 207.597 211.779C206.726 208.549 207.13 205.37 208.152 202.241C209.035 199.528 210.423 197.042 211.773 194.557C212.732 192.791 214.195 191.403 215.81 190.292C217.248 189.308 218.964 188.93 220.781 189.283C221.854 189.485 222.421 190.192 222.812 191.075C223.153 191.832 222.762 192.463 222.257 193.005C221.513 193.813 220.718 194.57 219.961 195.364C217.854 197.547 216.655 200.146 216.554 203.199C216.491 205.357 217.122 207.237 218.889 208.625C219.381 209.016 219.797 209.495 220.226 209.949C221.462 211.299 222.863 212.448 224.541 213.192C226.219 213.936 228.036 214.163 229.815 214.29C230.862 214.365 231.909 213.823 232.906 213.268C235.492 211.842 237.158 209.76 237.751 206.909C238.243 204.524 238.76 202.127 238.117 199.654C237.889 198.796 237.587 198.039 237.057 197.307C235.795 195.541 234.294 194.103 232.351 193.081C230.534 192.122 228.78 191.075 227.026 190.002C226.585 189.737 226.206 189.283 225.941 188.829C225.121 187.416 224.743 185.978 225.487 184.337C226.307 182.521 227.872 181.372 229.89 181.347C234.445 181.297 238.104 183.063 241.031 186.583C242.709 188.589 243.681 190.835 244.311 193.308C245.359 197.471 245.624 201.711 245.485 205.975C245.359 209.609 244.463 213.116 243.428 216.586C242.76 218.844 242.103 221.115 241.485 223.386C241.195 224.471 241.233 225.519 241.611 226.629C242.835 230.212 243.996 233.808 245.056 237.429C245.939 240.457 246.633 243.535 247.415 246.589C248.765 251.862 249.8 257.199 250.645 262.574C251.478 267.873 252.045 273.21 252.739 278.522C252.941 280.086 253.131 281.651 253.32 283.215C253.736 286.584 254.14 289.94 254.581 293.296C255.036 296.74 255.566 300.159 255.982 303.604C256.234 305.711 256.348 307.843 256.537 309.963C256.815 312.953 257.206 315.93 257.42 318.908C257.773 323.942 258.051 328.976 258.329 334.023C258.556 338.035 258.758 342.06 258.934 346.072C259.174 351.749 259.502 357.414 259.25 363.105C259.224 363.634 259.174 364.152 259.149 364.631C258.568 364.783 258.493 364.429 258.366 364.152C257.811 362.84 257.231 361.553 256.726 360.228C254.973 355.648 252.777 351.295 250.279 347.081C248.16 343.498 246.04 339.902 243.832 336.13C244.097 334.578 244.488 332.799 244.677 331.007C245.081 327.008 245.384 322.996 245.724 318.996C246.431 310.72 246.292 302.443 245.813 294.166C245.598 290.482 245.396 286.786 244.74 283.114C244.11 279.632 243.819 276.074 243.226 272.592V272.63ZM51.4008 429.847C47.0228 429.431 43.2251 427.753 40.134 424.523C35.8065 419.994 34.734 414.644 36.3364 408.79C37.3079 405.257 39.6798 402.545 42.6826 400.488C45.2564 398.722 48.1457 397.687 51.2873 397.574C54.7947 397.447 58.1886 398.066 61.3555 399.668C64.2321 401.119 66.6167 403.1 68.0802 406.203C67.462 407.415 66.8311 408.676 66.2003 409.925C64.9512 412.373 63.6517 414.821 62.4405 417.294C61.9232 418.353 61.5321 419.464 60.7625 420.397C60.4723 420.751 60.2956 421.217 60.1316 421.659C59.8667 422.353 60.0812 422.946 60.6489 423.299C61.1157 423.589 61.6835 423.564 62.1629 423.085C63.0461 422.189 63.8788 421.243 64.7368 420.309C65.9101 419.035 67.0709 417.748 68.2947 416.511C68.711 416.082 69.2788 415.792 70.1998 415.136C69.7961 418.164 69.1274 420.473 67.5629 422.454C66.8816 423.324 66.2255 424.22 65.4559 425.002C63.248 427.223 60.6237 428.687 57.52 429.368C55.4887 429.809 53.47 430.062 51.426 429.872L51.4008 429.847ZM64.1059 431.98C63.2984 432.61 62.5414 433.292 61.8097 433.998C61.2419 434.541 60.7372 435.146 60.1569 435.777C59.2232 435.386 58.6933 434.629 58.012 433.923C58.7438 432.421 59.7657 431.45 61.2924 430.73C66.0867 428.485 69.6951 425.002 71.575 419.93C71.7895 419.35 72.004 418.782 72.2185 418.202C73.4423 418.316 73.8839 419.148 74.4895 420.057C73.8461 420.864 73.2278 421.659 72.5718 422.429C72.269 422.782 71.8526 423.047 71.5372 423.4C69.8592 425.192 69.7456 426.453 71.4489 428.043C71.6634 428.245 71.8526 428.485 72.1176 428.775C71.3227 430.024 70.2629 430.932 69.1526 431.904C68.7615 431.752 68.3956 431.651 68.055 431.475C66.604 430.705 65.3045 431.058 64.1059 431.992V431.98ZM182.678 434.478C180.218 437.14 177.796 439.84 175.373 442.54C172.219 446.06 169.178 449.681 165.747 452.961C163.072 455.522 160.549 458.235 157.912 460.834C156.057 462.664 154.139 464.417 152.234 466.184C151.023 467.306 149.786 468.417 148.55 469.514C148.146 469.88 147.692 470.196 147.15 470.612C141.623 466.247 136.741 461.238 131.29 456.317C132.438 455.384 133.233 454.74 134.028 454.097C136.779 451.864 139.579 449.693 142.254 447.372C145.169 444.849 148.045 442.262 150.783 439.55C155.527 434.818 160.183 429.986 164.8 425.129C166.643 423.186 168.459 421.192 170.024 419.022C171.5 416.978 173.317 415.262 174.806 413.231C176.812 410.493 178.868 407.806 180.534 404.841C180.685 404.576 180.887 404.336 181.026 404.134C181.808 404.046 182.022 404.639 182.388 405.005C182.779 405.396 183.221 405.762 183.524 406.216C184.836 408.273 186.514 410.064 187.511 412.348C189.681 417.306 190.173 422.366 188.621 427.564C188.406 428.283 187.927 428.989 187.422 429.557C185.883 431.235 184.23 432.825 182.678 434.503V434.478ZM186.665 434.036C186.047 435.487 185.492 436.963 184.748 438.351C182.287 442.931 179.549 447.347 176.736 451.725C176.181 452.583 175.537 453.39 174.919 454.198C172.282 457.629 169.607 461.036 167.008 464.493C164.977 467.206 162.757 469.754 160.422 472.202C159.388 473.287 158.29 474.309 157.205 475.331C156.385 476.1 155.489 476.365 154.404 475.835C152.499 474.889 150.632 473.905 148.954 472.177C151.957 469.514 154.783 467.016 157.584 464.493C158.757 463.433 159.88 462.335 160.978 461.213C164.763 457.314 168.56 453.428 172.27 449.466C174.049 447.574 175.638 445.505 177.342 443.549C179.31 441.291 181.291 439.045 183.271 436.799C183.738 436.269 184.192 435.714 184.684 435.209C185.265 434.616 185.896 434.049 186.577 433.405C186.64 433.746 186.728 433.923 186.691 434.036H186.665ZM170.629 414.77C169.532 416.007 168.535 417.331 167.425 418.555C164.535 421.785 161.659 425.028 158.681 428.182C154.202 432.938 149.559 437.531 144.752 441.947C140.109 446.211 135.34 450.337 130.167 453.971C129.978 454.109 129.764 454.198 129.41 454.4C129.032 454.071 128.616 453.743 128.237 453.39C124.843 450.198 121.348 447.132 117.689 444.256C116.579 443.385 115.557 442.388 114.472 441.467C113.967 441.038 113.702 440.508 113.602 439.852C113.046 436.597 111.343 434.023 108.895 431.891C107.47 430.642 106.031 429.406 104.631 428.144C103.874 427.463 103.13 426.756 102.474 425.987C99.9502 423.022 96.8717 420.675 93.8815 418.24C93.1497 417.647 92.3927 417.079 91.6357 416.499C90.6138 415.729 89.453 415.262 88.2292 414.922C87.2072 414.631 86.3114 414.821 85.6049 415.527C83.7629 417.357 81.6685 418.909 79.9526 420.889C77.997 423.148 75.8648 425.242 73.8335 427.374C72.9503 427.311 72.6727 426.744 72.3573 426.1C72.6222 425.166 73.518 424.712 74.1489 424.031C74.8428 423.287 75.6376 422.605 76.2433 421.785C77.24 420.423 77.1643 419.703 76.2054 418.353C75.3601 417.142 74.1489 416.423 72.7989 415.78V412.537C76.6596 408.714 81.1259 405.749 85.7311 403.024C89.2512 400.942 93.0236 399.264 96.8338 397.775C99.395 396.779 101.83 395.429 104.581 394.924C108.517 393.057 112.769 392.123 116.844 390.66C119.885 389.575 123.001 388.742 126.218 388.338C129.108 387.972 131.997 387.354 134.924 387.518C138.621 387.707 142.317 387.619 146.014 387.997C149.231 388.325 152.436 388.653 155.59 389.385C159.741 390.344 163.791 391.656 167.589 393.599C171.033 395.366 174.263 397.485 177.203 400.034C178.136 400.854 179.095 401.661 180.054 402.481C177.215 406.91 174.061 410.935 170.667 414.795L170.629 414.77ZM16.4019 470.107C13.9416 469.451 11.7463 468.354 9.72758 466.739C7.10329 464.644 5.50096 461.881 4.13835 458.954C2.92714 456.355 2.40985 453.567 2.5234 451.069C2.40985 446.375 3.53274 442.439 5.9804 438.881C8.69301 434.932 12.5033 432.837 17.1967 432.232C17.8149 432.156 18.4584 432.156 19.0766 432.232C24.4514 433.027 28.514 435.79 31.4663 440.344C34.2925 444.697 35.2639 449.454 34.8728 454.526C34.4817 459.648 32.2107 463.887 28.3878 467.231C27.0504 468.392 25.4481 469.287 23.6187 469.691C21.2215 470.221 18.8621 470.738 16.4019 470.07V470.107ZM30.6588 471.811C29.4476 472.921 28.2112 474.006 26.9369 475.142C26.5962 474.839 26.3313 474.675 26.142 474.435C25.6626 473.829 25.2084 473.199 24.6406 472.454C25.3724 471.823 26.1546 471.495 26.899 471.142C30.0532 469.641 32.4378 467.332 34.2546 464.379C35.5415 462.298 36.2733 459.964 37.2322 457.68C38.6705 457.516 39.4527 458.273 40.0205 459.396C39.9195 460.241 39.4401 460.859 38.948 461.478C38.3172 462.285 37.6611 463.067 37.0429 463.887C35.7812 465.54 35.7812 466.095 37.0429 467.874C36.084 468.972 35.1125 470.082 34.0527 471.306C33.8383 471.281 33.5354 471.281 33.2579 471.18C32.2359 470.801 31.4411 471.117 30.6714 471.823L30.6588 471.811ZM14.1813 504.576C12.0238 502.709 9.46263 494.458 8.88226 488.705C9.08413 488.616 9.31123 488.402 9.50048 488.44C12.8187 489.083 16.1369 489.752 19.4425 490.446C19.7958 490.521 20.1112 490.786 20.5023 490.976C20.2752 491.833 20.0355 492.565 19.8841 493.335C19.7327 494.117 19.7453 494.899 20.4266 495.505C21.1332 496.136 21.8145 496.767 22.4958 497.41C22.8743 497.776 23.2402 498.155 23.6691 498.596C20.4645 500.716 17.5878 503.05 14.1939 504.576H14.1813ZM80.6717 477.185C80.4951 477.337 80.2806 477.438 80.0157 477.602C78.6531 476.958 77.669 475.798 76.5334 474.864C74.5905 473.262 72.7232 471.571 70.818 469.918C70.4648 469.615 70.0989 469.3 69.6951 469.073C68.4587 468.392 67.4367 468.568 66.5662 469.678C65.1152 471.533 63.6517 473.4 62.3017 475.331C58.7312 480.441 55.2742 485.613 51.6784 490.711C49.5966 493.676 47.4896 496.653 44.7013 499.025C42.6069 500.817 40.2728 502.091 37.3962 501.813C36.2354 501.7 35.0242 501.511 33.9392 501.107C29.7756 499.53 26.0411 497.221 22.6976 494.269C22.5841 494.168 22.521 494.016 22.3444 493.764C22.4579 493.423 22.5715 492.982 22.7481 492.565C24.5523 488.061 27.2775 484.137 30.2677 480.365C32.6144 477.4 34.7971 474.309 37.1691 471.369C39.4023 468.619 41.7616 465.969 44.1209 463.32C47.7924 459.207 51.4891 455.119 55.1985 451.043C56.5232 449.58 57.9237 448.205 59.2485 446.741C61.5826 444.18 63.9293 441.619 66.1751 438.982C69.405 435.197 72.9755 431.752 76.4956 428.245C78.6657 426.075 80.697 423.766 82.7914 421.52C84.1918 420.019 85.8194 418.795 87.2829 417.407C88.696 417.697 89.7558 418.404 90.7399 419.161C92.9983 420.889 95.2441 422.63 97.4016 424.46C98.6507 425.532 99.6978 426.844 100.896 427.967C102.789 429.746 104.757 431.462 106.675 433.216C107.192 433.695 107.659 434.251 108.227 434.667C109.867 435.891 110.258 437.771 110.914 439.524C111.154 440.143 111.028 440.761 110.649 441.316C109.047 443.65 107.609 446.098 105.489 448.053C104.341 449.113 103.395 450.413 102.448 451.674C99.7105 455.346 96.6194 458.714 93.6292 462.171C92.91 463.004 92.2666 463.9 91.5348 464.733C87.9012 468.871 84.8479 473.527 80.6591 477.185H80.6717ZM90.639 502.57C90.0082 502.873 89.3142 503.075 88.6203 503.214C87.8381 503.365 87.2451 502.936 86.9928 502.179C86.6899 501.246 86.6899 500.299 87.0432 499.391C88.0147 496.817 88.696 494.105 90.5507 491.947C92.6072 487.998 95.5974 484.743 98.5245 481.463C100.392 479.356 102.524 477.45 104.921 475.911C106.233 475.053 107.558 474.195 108.933 473.438C109.539 473.11 110.271 472.934 110.952 472.858C112.39 472.706 112.958 473.312 112.92 475.116C112.882 475.318 112.832 475.873 112.668 476.403C111.507 480.024 109.905 483.418 107.672 486.534C105.502 489.537 103.18 492.439 100.657 495.139C97.7927 498.205 94.4997 500.779 90.6642 502.583L90.639 502.57ZM105.35 509.371C104.177 510.305 102.928 511.125 101.477 511.566C101.023 511.705 100.568 511.831 100.102 511.882C99.1427 511.983 98.638 511.554 98.4866 510.582C98.4362 510.267 98.4235 509.951 98.3731 509.598C98.5623 507.996 98.903 506.381 99.5338 504.841C100.556 502.356 101.792 499.997 103.256 497.751C103.988 496.641 104.606 495.454 105.338 494.332C105.804 493.612 106.385 492.956 106.927 492.288C109.88 488.679 113.109 485.374 116.945 482.686C118.118 481.866 119.317 481.134 120.73 480.832C121.109 480.756 121.512 480.706 121.891 480.743C122.471 480.806 122.963 481.097 123.026 481.753C123.089 482.371 123.14 483.014 123.064 483.62C122.774 485.74 122.156 487.771 121.209 489.689C119.367 493.448 117.033 496.88 114.497 500.198C111.848 503.668 108.769 506.671 105.363 509.371H105.35ZM117.109 519.982C116.138 520.713 115.078 521.193 113.93 521.496C112.756 521.798 111.709 521.079 111.558 519.855C111.293 517.786 111.621 515.78 112.239 513.787C113.299 510.368 115.04 507.302 116.73 504.185C118.8 500.375 121.739 497.334 124.818 494.395C125.663 493.587 126.66 492.906 127.631 492.25C128.149 491.897 128.754 491.657 129.347 491.48C131.644 490.799 132.388 491.972 132.35 493.524C132.35 493.84 132.35 494.155 132.35 494.47C132.287 497.032 131.644 499.467 130.596 501.763C129.587 503.983 128.515 506.191 127.278 508.286C124.616 512.803 121.336 516.815 117.096 519.982H117.109ZM205.338 563.194C205.906 560.658 206.499 558.122 207.079 555.599C207.483 553.832 207.988 552.091 208.29 550.312C209.01 546.124 210.284 542.036 210.675 537.771C211.066 533.456 211.861 529.179 212.277 524.864C212.908 518.354 213.362 511.818 213.88 505.296C214.119 502.23 214.347 499.176 214.561 496.111C214.637 495.089 214.611 494.067 214.662 493.045C214.738 491.48 214.523 489.891 214.952 488.339C215.179 487.519 214.864 486.888 214.372 486.711C213.69 486.459 213.161 486.749 212.681 487.228C211.079 488.856 209.489 490.509 207.836 492.086C205.452 494.382 203.029 496.641 200.594 498.886C199.03 500.325 197.39 501.687 195.775 503.075C192.772 505.624 189.946 508.412 186.577 510.494C183.965 512.109 181.316 513.661 178.603 515.099C175.891 516.537 173.128 517.887 170.327 519.111C163.678 522.025 156.751 523.678 149.421 523.249C147.036 523.111 144.778 522.366 142.507 521.748C140.45 521.18 138.558 520.196 136.741 519.073C134.52 517.711 132.312 516.348 130.117 514.96C129.183 514.38 128.3 513.724 127.291 513.03C127.657 512.411 127.934 511.869 128.262 511.364C130.95 507.251 133.195 502.911 134.432 498.142C134.924 496.237 135.151 494.269 134.722 492.288C134.23 489.979 132.401 488.591 130.054 488.944C129.057 489.096 127.985 489.373 127.177 489.928C125.827 490.849 124.237 491.455 123.178 492.805C123.089 492.919 122.9 492.931 122.559 493.083C122.66 492.691 122.686 492.427 122.799 492.187C123.859 489.891 124.944 487.62 125.461 485.134C125.739 483.797 125.789 482.484 125.373 481.16C124.856 479.52 123.846 478.674 122.118 478.598C120.667 478.535 119.279 478.851 118.03 479.595C117.021 480.201 116.037 480.87 115.065 481.526C114.485 481.917 113.917 482.333 112.996 482.989C113.236 482.194 113.311 481.778 113.475 481.399C114.497 479.002 115.481 476.58 115.254 473.892C115.216 473.35 115.128 472.782 114.926 472.29C114.232 470.688 112.643 469.893 110.838 470.259C108.643 470.7 106.688 471.659 104.808 472.87C100.783 475.47 97.5656 478.939 94.3609 482.421C94.0455 482.762 93.7175 483.103 93.3138 483.544C92.8848 483.305 92.418 483.166 92.1278 482.85C90.21 480.819 87.8255 479.406 85.5923 477.804C85.34 477.627 85.0624 477.476 84.8605 477.337C84.646 476.681 85.1002 476.416 85.4156 476.088C87.3334 474.094 88.961 471.874 90.6895 469.716C91.8754 468.253 93.074 466.802 94.2979 465.363C97.2502 461.881 100.24 458.412 103.18 454.917C103.937 454.021 104.53 452.974 105.274 452.065C106.12 451.031 107.104 450.11 107.962 449.088C109.072 447.763 110.107 446.375 111.179 445.013C111.608 444.47 112.037 443.928 112.554 443.272C113.046 443.637 113.425 443.89 113.766 444.18C115.09 445.29 116.415 446.413 117.727 447.549C119.822 449.353 121.929 451.132 123.998 452.961C125.764 454.538 127.48 456.166 129.208 457.781C132.716 461.061 136.186 464.392 139.744 467.622C142.544 470.171 145.383 472.669 148.298 475.078C149.496 476.075 150.909 476.857 152.272 477.64C152.941 478.018 153.723 478.22 154.48 478.46C156.057 478.939 157.331 478.472 158.593 477.4C162.567 474.006 165.949 470.07 169.103 465.931C171.349 462.979 173.62 460.052 175.928 457.15C177.998 454.551 179.676 451.7 181.455 448.911C183.057 446.388 184.647 443.852 186.11 441.24C187.107 439.461 187.977 437.581 188.734 435.689C190.274 431.803 191.283 427.74 191.977 423.615C192.229 422.075 192.179 420.448 191.977 418.896C191.51 415.275 190.539 411.78 188.444 408.714C186.792 406.317 185.265 403.794 183.095 401.813C180.887 399.794 178.755 397.649 176.345 395.908C171.487 392.388 166.251 389.537 160.422 387.859C156.007 386.584 151.54 385.726 146.973 385.436C143.592 385.222 140.21 384.957 136.829 384.982C132.981 385.007 129.145 385.272 125.323 386.029C122.61 386.559 119.973 387.316 117.273 387.859C115.822 388.149 114.422 388.754 113.009 389.259C106.41 391.656 99.7231 393.788 93.2885 396.589C87.7876 398.987 82.4759 401.737 77.6311 405.333C74.4012 407.73 71.3101 410.291 68.3704 413.054C68.0928 413.319 67.79 413.546 67.5124 413.773C67.0582 413.445 67.2601 413.168 67.3989 412.903C69.569 408.878 71.9031 404.954 74.4391 401.144C76.4956 398.066 78.59 395 80.6844 391.946C81.2143 391.164 81.8199 390.432 82.4002 389.688C84.4442 387.089 86.4628 384.465 88.5698 381.904C90.2226 379.897 92.0016 377.992 93.667 375.999C94.9792 374.422 96.2787 372.832 97.4521 371.154C98.638 369.476 98.1081 368.126 96.0894 367.647C94.3862 367.243 92.6451 367.205 90.9166 367.483C88.5825 367.848 86.2988 368.416 84.0026 368.984C78.5395 370.347 73.3792 372.441 68.2316 374.611C66.3517 375.406 64.5854 376.478 62.7938 377.462C58.3779 379.897 53.9368 382.282 49.7102 385.058C47.4013 386.572 45.1177 388.124 42.8214 389.65C42.0392 390.167 41.2317 390.672 40.4368 391.202C39.9826 390.533 40.4999 390.092 40.727 389.663C42.9476 385.398 45.4583 381.298 48.2845 377.399C49.6218 375.557 51.1106 373.816 52.5489 372.037C54.6938 369.4 56.8639 366.801 58.9835 364.152C62.7812 359.408 66.8059 354.878 71.1208 350.601C73.19 348.557 75.1077 346.337 77.2526 344.369C79.1703 342.615 80.8484 340.609 83.0058 339.12C83.7755 338.59 84.3685 337.808 85.075 337.19C86.6142 335.84 88.204 334.54 89.7306 333.165C90.6011 332.37 91.4212 331.512 92.2035 330.616C93.0993 329.594 92.8722 328.535 91.6105 327.942C90.9923 327.651 90.2605 327.437 89.5792 327.412C86.6647 327.323 83.8007 327.374 80.8988 328.093C78.0727 328.787 75.2591 329.481 72.4961 330.377C69.7961 331.247 67.1087 332.168 64.497 333.266C60.876 334.805 57.3559 336.559 53.9494 338.577C50.7574 340.47 47.6915 342.539 44.6887 344.709C44.2723 345.012 43.8055 345.239 43.2756 345.403C44.348 343.738 45.7359 342.375 47.1111 341.038C49.8868 338.35 52.7634 335.751 55.5644 333.102C59.3999 329.456 63.5634 326.213 67.8783 323.16C71.411 320.649 75.0699 318.34 78.9811 316.435C81.1007 315.4 83.1699 314.252 85.2895 313.205C88.6834 311.527 92.2666 310.303 95.8371 309.067C98.739 308.07 101.641 307.073 104.581 306.19C108.277 305.08 112.024 304.159 115.873 303.654C119.935 303.124 124.01 302.859 128.111 302.67C132.678 302.456 137.245 302.405 141.813 302.582C144.159 302.67 146.519 303.036 148.853 303.389C150.72 303.667 152.36 303.465 154.013 302.393C156.852 300.551 159.842 298.936 162.782 297.245C166.264 295.251 169.759 293.271 173.254 291.302C175.727 289.902 178.212 288.527 180.672 287.126C183.271 285.65 185.858 284.149 188.47 282.685C191.699 280.881 194.967 279.127 198.21 277.336C200.418 276.124 202.6 274.875 204.644 273.399C206.814 271.822 208.984 270.258 211.205 268.769C212.088 268.176 212.984 267.482 214.094 267.318C214.473 267.785 214.132 268.138 213.955 268.428C212.984 270.056 212 271.658 210.99 273.26C209.01 276.389 206.991 279.506 205.01 282.635C203.875 284.426 202.689 286.205 201.641 288.06C200.758 289.637 200.039 291.302 199.232 292.93C197.491 296.463 195.712 299.97 194.034 303.528C193.504 304.651 193.188 305.887 192.797 307.086C192.633 307.603 192.885 308.02 193.277 308.322C193.857 308.777 194.513 308.953 195.257 308.979C198.613 309.067 201.78 309.963 204.859 311.237C208.063 312.549 211.268 313.836 214.485 315.123C216.403 315.88 218.106 317.003 219.986 318.176C219.532 321.103 219.116 323.791 218.195 326.428C216.681 330.843 214.712 335.045 212.858 339.297C211.975 341.315 210.763 343.183 209.666 345.1C207.748 348.456 205.553 351.636 203.004 354.55C199.825 358.171 196.582 361.755 192.52 364.391C188.533 366.99 184.155 368.807 179.411 369.552C177.543 369.842 175.651 370.018 173.771 370.22C173.241 370.271 172.699 370.22 172.093 370.22C171.311 368.366 170.364 366.763 169.027 365.388C167.122 363.42 164.977 361.881 162.214 361.401C160.826 361.162 159.464 360.632 158.025 361.035C157.647 361.136 157.268 361.25 156.928 361.439C156.486 361.679 156.183 362.057 156.322 362.6C156.448 363.079 156.738 363.508 157.243 363.584C157.786 363.672 158.341 363.634 158.883 363.584C160.902 363.445 162.807 363.836 164.523 364.909C168.283 367.255 170.289 370.624 170.301 375.103C170.301 377.525 169.645 379.771 168.371 381.828C167.917 382.56 167.475 383.317 167.084 384.086C166.794 384.641 166.933 385.348 167.299 385.6C167.664 385.853 168.371 385.764 168.8 385.272C169.658 384.25 170.604 383.253 171.197 382.08C172.497 379.506 173.039 376.731 172.825 373.829C172.812 373.602 172.825 373.362 172.863 373.122C172.863 373.059 172.951 372.996 173.077 372.845C174.149 372.731 175.31 372.567 176.471 372.479C180.597 372.163 184.508 371.003 188.343 369.514C193.138 367.647 197.087 364.581 200.67 360.972C203.496 358.108 206.221 355.143 208.543 351.863C210.221 349.491 211.684 346.942 213.123 344.406C214.965 341.189 216.504 337.82 217.879 334.376C218.485 332.837 219.065 331.298 219.734 329.784C220.932 327.021 221.715 324.144 222.093 321.154C222.144 320.775 222.283 320.409 222.346 320.132C222.989 319.791 223.368 320.17 223.746 320.384C226.307 321.822 228.616 323.601 230.723 325.62C232.376 327.21 234.029 328.774 235.656 330.389C239.025 333.758 241.611 337.72 244.147 341.719C245.409 343.713 246.709 345.706 247.794 347.8C249.383 350.866 251.301 353.768 252.525 357.036C253.269 359.029 254.241 360.934 255.099 362.877C255.288 363.306 255.465 363.748 255.603 364.202C256.335 366.536 257.244 368.795 258.24 371.04C258.619 371.886 258.745 372.845 259.035 373.74C259.994 376.743 261.003 379.733 261.937 382.749C263.489 387.707 264.99 392.678 266.126 397.763C266.984 401.611 267.905 405.446 268.561 409.332C269.419 414.455 270.352 419.577 270.807 424.775C271.021 427.286 271.425 429.772 271.665 432.282C271.803 433.771 271.778 435.272 271.841 436.761C271.93 438.729 272.043 440.698 272.119 442.653C272.22 445.416 272.295 448.179 272.396 450.93C272.623 457.478 272.409 464.001 271.816 470.524C271.501 473.968 271.412 477.438 271.16 480.895C270.971 483.481 270.58 486.068 270.453 488.667C270.277 492.124 269.709 495.53 269.305 498.949C268.599 504.892 267.753 510.822 266.933 516.752C266.479 520.032 266.088 523.325 265.482 526.58C264.574 531.488 264.637 536.484 263.905 541.392C263.287 545.518 262.669 549.656 262.063 553.782C261.306 558.93 260.297 564.027 259.124 569.099C258.695 570.941 258.43 572.808 258.051 574.663C257.925 575.268 257.698 575.849 257.483 576.593C256.84 576.454 256.323 576.353 255.818 576.227C252.676 575.458 249.484 574.978 246.305 574.423C243.983 574.019 241.712 573.363 239.378 573.06C236.716 572.707 234.13 571.988 231.518 571.458C229.045 570.953 226.597 570.386 224.125 569.881C223.506 569.755 222.875 569.767 222.257 569.654C220.087 569.237 217.904 568.922 215.772 568.342C213.022 567.61 210.259 567.042 207.395 566.979C206.549 566.966 205.679 567.017 204.758 566.765C204.998 565.503 205.187 564.355 205.439 563.219L205.338 563.194ZM289.972 655.296C290.337 657.858 290.262 660.419 289.795 663.031C288.924 667.913 286.35 671.812 283.272 675.408C280.458 678.688 276.737 680.808 272.75 682.435C267.35 684.631 261.887 684.631 256.386 682.877C254.329 682.221 252.525 681.136 250.986 679.609C250.203 678.839 249.371 678.12 248.601 677.338C247.175 675.912 246.254 674.209 245.661 672.291C244.627 668.961 244.538 668.468 244.639 665.352C244.614 661.567 245.8 658.135 247.529 654.792C250.557 648.912 255.326 644.963 261.155 642.251C265.23 640.358 269.583 639.765 274.062 640.51C275.071 640.674 276.106 640.749 277.077 641.04C280.799 642.125 283.789 644.194 286.262 647.26C288.205 649.682 289.543 652.281 289.972 655.296ZM282.187 636.195C283.398 636.548 284.584 636.939 285.783 637.343C286.59 637.62 287.385 637.948 288.218 638.251C288.407 639.172 287.965 639.854 287.675 640.56C287.423 641.204 287.095 641.809 286.716 642.617C285.619 641.872 284.635 641.267 283.714 640.573C282.502 639.664 281.19 638.983 279.739 638.567C278.465 638.201 277.216 637.709 275.916 637.431C272.888 636.775 269.848 636.788 266.794 637.355C265.798 637.545 264.776 637.62 263.766 637.797C263.464 637.848 263.186 638.037 262.795 638.213C262.517 637.759 261.975 637.28 262.013 636.863C262.126 635.804 261.95 634.63 262.984 633.684C263.741 633.381 264.7 633.52 265.621 633.634C267.097 633.823 268.586 634.037 270.037 634.378C271.147 634.643 272.056 634.214 272.914 633.734C273.38 633.482 273.595 632.763 273.986 632.17C274.932 632.17 275.929 632.321 276.913 632.637C277.809 632.927 278.705 633.179 279.727 633.482C279.815 633.659 279.992 633.924 280.08 634.214C280.395 635.312 281.152 635.892 282.212 636.207L282.187 636.195ZM302.374 633.596C300.835 633.293 299.232 633.305 297.668 633.116C296.028 632.914 294.4 632.599 292.76 632.359C290.11 631.968 287.448 631.678 284.811 631.198C280.547 630.429 276.308 629.584 272.056 628.726C269.129 628.133 266.202 627.477 263.287 626.82C262.366 626.619 261.47 626.316 260.549 626.076C257.345 625.256 254.165 624.348 250.935 623.641C247.781 622.947 244.665 622.089 241.536 621.269C240.097 620.891 238.646 620.512 237.196 620.197C232.111 619.074 227.001 618.09 221.954 616.828C218.207 615.894 214.561 614.595 210.864 613.484C209.363 613.03 207.824 612.664 206.31 612.273C204.026 611.68 201.717 611.176 199.446 610.494C197.263 609.838 195.144 609.018 193.15 608.312C192.57 607.227 192.646 606.268 192.734 605.334C192.86 603.921 193.075 602.521 193.302 601.12C193.642 599.013 193.996 596.919 194.399 594.824C194.677 593.361 195.018 591.897 195.396 590.446C196.633 585.715 197.856 580.984 199.181 576.278C199.497 575.167 200.191 574.158 200.758 573.123C201.023 572.644 201.465 572.266 201.742 571.786C202.764 570.007 204.152 569.137 206.259 569.843C206.549 569.944 206.89 569.969 207.193 569.944C209.514 569.805 211.722 570.348 213.943 570.941C215.76 571.433 217.627 571.773 219.482 572.114C222.043 572.581 224.617 572.959 227.165 573.439C228.868 573.754 230.546 574.171 232.237 574.562C234.231 575.029 236.224 575.521 238.217 575.987C238.672 576.101 239.151 576.164 239.618 576.227C240.085 576.29 240.577 576.265 241.031 576.379C245.624 577.539 250.355 577.956 254.947 579.091C256.777 579.545 258.581 580.151 260.385 580.731C260.991 580.921 261.331 581.413 261.155 582.018C260.638 583.835 260.663 585.753 259.969 587.557C258.884 590.446 258.606 593.537 258.013 596.553C257.647 598.445 258.695 599.707 260.625 600.048C265.041 600.842 269.507 601.36 273.961 601.827C279.916 602.457 285.896 602.962 291.839 603.694C295.826 604.186 299.8 604.754 303.648 606.015C305.894 606.747 307.812 607.958 309.477 609.523C310.373 610.356 311.105 611.504 311.546 612.652C312.139 614.178 312.455 615.819 312.732 617.434C312.959 618.746 312.959 620.096 313.035 621.433C313.25 625.319 312.505 629.091 311.799 632.927C310.247 633.394 308.745 633.432 307.282 633.444C305.642 633.444 304.039 633.873 302.374 633.558V633.596ZM328.301 634.958C325.614 639.677 321.816 643.437 317.792 646.982C316.732 647.916 315.634 648.786 314.612 649.644C313.716 649.417 313.628 648.723 313.439 648.155C312.442 645.254 311.471 642.339 310.524 639.425C310.31 638.756 310.234 638.049 310.095 637.343C310.348 637.179 310.524 636.99 310.726 636.952C313.83 636.308 315.155 634.946 315.659 631.791C315.836 630.618 315.949 629.445 316.101 628.271C316.151 627.905 316.24 627.552 316.328 627.123C320.555 629.356 324.945 630.921 328.793 633.886C328.68 634.163 328.528 634.592 328.314 634.971L328.301 634.958Z" fill="white"/>
<path d="M222.573 129.48C221.639 131.435 220.617 133.416 219.747 135.46C216.605 142.765 213.829 150.209 211.192 157.703C210.776 158.902 210.486 160.151 210.082 161.35C209.767 162.321 209.842 163.103 210.536 163.961C211.886 165.627 213.098 167.406 214.359 169.147C218.725 175.14 222.333 181.6 225.727 188.173C227.771 192.135 229.613 196.172 231.404 200.247C231.783 201.118 232.187 201.988 232.061 202.985C231.972 203.666 231.354 204.108 230.698 203.919C229.979 203.717 229.398 203.313 229.007 202.682C228.717 202.215 228.452 201.723 228.225 201.206C226.648 197.648 224.894 194.166 222.951 190.785C218.687 183.416 214.523 175.985 209.577 169.059C203.269 160.227 196.292 151.975 188.343 144.569C185.555 141.97 182.83 139.283 179.928 136.797C172.232 130.224 164.157 124.181 154.934 119.84C152.638 118.755 150.405 117.519 148.146 116.371C144.954 114.743 141.623 113.456 138.23 112.321C135.593 111.438 135.58 111.614 136.463 108.864C137.195 106.568 138.381 104.498 139.466 102.379C144.26 93.0298 149.723 84.0719 155.489 75.2906C160.788 67.2285 166.63 59.5953 173.304 52.6056C176.13 49.6533 179.171 47.0038 182.88 45.2122C183.524 44.8968 184.18 44.6318 184.836 44.3416C186.262 43.7234 187.7 43.4584 189.239 43.9253C190.375 44.2659 191.561 44.4678 192.696 44.7958C193.239 44.9472 193.579 44.8968 193.87 44.3921C194.664 43.0169 195.548 41.6921 196.305 40.2916C199.055 35.2197 202.562 30.7155 206.612 26.615C210.41 22.7669 214.157 18.8557 218.005 15.0581C220.44 12.6483 223.204 10.617 225.967 8.59828C227.897 7.19781 229.827 5.78473 231.783 4.42212C233.549 3.19829 235.442 2.18895 237.36 1.23008C240.224 -0.183004 243.138 -0.283939 246.179 0.447835C250.229 1.41933 254.052 2.94596 257.584 5.16651C260.347 6.89501 263.073 8.69921 265.773 10.516C271.147 14.1244 275.866 18.5151 280.635 22.8552C286.54 28.23 291.687 34.286 296.608 40.5566C298.589 43.0799 300.04 45.9061 301.642 48.6439C301.882 49.0477 302.033 49.5145 302.222 49.9561C303.08 51.9495 302.651 53.6528 301.125 55.1668C300.204 56.0752 299.182 56.8322 298.046 57.4C292.646 60.1 288.117 64.0112 283.701 68.0107C280.522 70.8873 277.582 74.0415 274.63 77.1579C269.999 82.0532 266.618 87.819 263.438 93.7111C259.414 101.205 255.755 108.876 252.02 116.522C250.166 120.307 248.109 123.991 245.586 127.385C242.898 130.981 239.769 134.123 236.111 136.734C234.407 137.946 232.54 138.803 230.673 139.687C230.004 140.002 229.739 139.888 229.335 139.182C228.477 137.655 227.695 136.091 226.774 134.602C225.803 133.05 224.705 131.599 223.645 130.098C223.418 129.77 223.14 129.48 222.573 129.442V129.48ZM233.436 112.8V112.775C232.616 113.154 232.199 113.936 231.682 114.617C229.108 118.011 226.989 121.695 224.806 125.341C223.746 127.12 223.115 127.36 225.411 129.492C226.698 131.46 227.985 133.429 229.461 135.485C230.597 131.435 232.338 127.865 233.953 124.244C235.858 119.967 237.713 115.664 239.542 111.362C240.161 109.911 240.552 108.372 240.476 106.769C240.325 106.744 240.224 106.706 240.173 106.732C237.852 108.246 235.631 109.886 233.94 112.144C233.663 112.283 233.436 112.46 233.423 112.8H233.436ZM230.572 82.6966L230.61 82.7345C230.748 82.091 230.269 81.7251 229.954 81.2835C227.96 78.5457 225.714 75.9971 223.431 73.499C221.727 71.6443 220.1 69.714 218.119 68.1495C215.444 65.1088 212.416 62.4341 209.35 59.8098C209.06 59.5574 208.694 59.3808 208.366 59.1663C206.739 57.564 204.821 56.2897 202.991 54.9397C201.856 54.107 200.784 53.1607 199.459 52.6056C196.948 50.486 194.109 48.9467 191.043 47.7986C190.034 47.4201 189.012 47.3949 187.99 47.5337C186.728 47.7103 185.517 48.0383 184.344 48.5809C182.022 49.6785 179.966 51.1673 178.086 52.8832C171.841 58.5986 166.63 65.1719 161.987 72.2247C159.325 75.6186 156.839 79.1387 154.455 82.7219C151.982 86.2798 149.66 89.9387 147.541 93.7111C145.825 96.0578 144.487 98.6316 143.137 101.193C142.772 101.874 142.28 102.518 142.229 103.338C140.955 105.155 140.299 107.249 139.479 109.381C140.803 109.734 142.015 110.05 143.226 110.378C147.314 112.169 151.553 113.608 155.565 115.614C155.679 115.727 155.767 115.866 155.906 115.942C161.672 119.147 167.198 122.742 172.61 126.515C175.02 128.193 177.367 129.959 179.549 131.953C182.249 134.413 184.937 136.886 187.649 139.333C189.239 140.772 190.854 142.172 192.456 143.598C193.87 145.099 195.32 146.575 196.708 148.102C199.812 151.521 202.878 154.966 205.956 158.385C206.209 158.662 206.385 159.091 206.978 158.877C207.281 157.956 207.584 156.972 207.899 156C209.502 152.215 210.94 148.367 212.202 144.468C213.413 141.592 214.637 138.715 215.848 135.839C216.391 134.539 216.933 133.239 217.476 131.953C218.851 129.202 220.226 126.452 221.601 123.701C223.469 120.938 225.348 118.162 227.216 115.399C227.544 115.059 227.897 114.743 228.2 114.377C231.657 110.226 235.366 106.34 239.933 103.388C240.425 103.073 240.438 102.682 240.325 102.164C239.82 99.7545 239.139 97.4078 238.016 95.2125C236.666 91.8186 234.811 88.6896 232.906 85.5985C232.376 84.7279 231.909 83.8069 231.102 83.1256C231.001 82.8985 230.875 82.6966 230.584 82.6966H230.572ZM268.965 17.1398C266.555 14.7048 263.792 12.6987 261.003 10.7431C259.59 9.7464 258.165 8.71183 256.512 8.0936C251.982 4.63661 246.683 3.46325 241.157 3.03427C240.186 2.95857 239.277 3.24876 238.445 3.77867C236.905 4.76277 235.316 5.67118 233.827 6.71837C224.276 13.4053 215.621 21.051 208.139 30.0216C205.742 32.8856 203.37 35.7748 201.225 38.8281C199.623 41.0991 198.172 43.4711 196.86 45.9313C196.443 46.7136 196.506 47.0542 197.2 47.5715C199.484 49.2748 201.667 51.1421 204.266 52.3911C206.575 54.2963 208.896 56.2014 211.205 58.1065C212.542 59.2168 213.855 60.3271 215.192 61.45C218.308 64.6042 221.425 67.771 224.554 70.9126C224.768 71.127 225.071 71.2658 225.323 71.4298C225.538 71.7579 225.727 72.1238 225.979 72.414C228.44 75.2149 230.673 78.1924 232.792 81.2457C233.196 81.8261 233.713 82.3181 234.18 82.8606C234.458 83.706 235.051 84.362 235.543 85.0686C237.789 88.3363 239.795 91.7302 241.334 95.4017C241.7 96.2723 242.066 97.1428 242.432 98.0008C242.583 98.6947 242.734 99.3886 242.898 100.083C243.996 104.536 243.832 108.889 241.813 113.09C241.712 113.305 241.624 113.532 241.536 113.747C238.899 119.689 236.262 125.632 233.638 131.587C233.284 132.382 233.032 133.214 232.742 134.034C232.616 134.198 232.477 134.425 232.666 134.577C232.881 134.753 232.994 134.526 233.082 134.35C236.375 132.104 239.391 129.543 241.902 126.426C244.904 122.692 247.377 118.629 249.371 114.276C252.374 107.703 255.351 101.117 258.745 94.733C262.038 88.5382 265.709 82.6083 270.441 77.385C274.983 72.3635 279.891 67.7457 285.127 63.456C288.76 60.4785 292.571 57.7533 296.684 55.4696C297.592 54.9649 298.513 54.4981 299.422 54.0187C299.85 53.7916 299.926 53.4005 299.75 53.0093C298.412 49.9561 296.986 46.9407 294.905 44.2911C294.766 44.001 294.678 43.6855 294.488 43.4458C292.482 40.7963 290.476 38.1468 288.445 35.5225C288.205 35.2197 287.877 34.98 287.587 34.715C287.322 34.3239 287.108 33.8823 286.78 33.5543C284.143 30.9174 281.632 28.1417 278.654 25.858C275.588 23.0193 272.51 20.1679 269.431 17.3291C269.318 17.2282 269.154 17.1903 269.015 17.1272L268.965 17.1398Z" fill="white"/>
<path d="M232.717 134.072C233.019 133.252 233.272 132.419 233.625 131.624C236.249 125.669 238.886 119.727 241.523 113.784C241.624 113.57 241.7 113.343 241.801 113.128C243.819 108.927 243.983 104.574 242.886 100.12C242.722 99.4264 242.57 98.7325 242.419 98.0386C242.898 97.0418 243.327 96.0073 243.87 95.0484C246.57 90.2792 249.345 85.5479 252.638 81.1573C254.544 78.6213 256.461 76.0727 258.556 73.7008C260.663 71.3162 262.934 69.083 265.243 66.9003C268.536 63.7966 271.955 60.8317 275.273 57.7658C276.913 56.2518 278.604 54.8135 280.395 53.5013C284.622 50.385 289 47.521 293.693 45.149C294.11 44.9345 294.463 44.6065 294.854 44.3289C296.936 46.9658 298.362 49.9812 299.699 53.0345C299.876 53.4256 299.8 53.8167 299.371 54.0438C298.463 54.5359 297.542 54.9901 296.633 55.4948C292.52 57.7784 288.71 60.5036 285.076 63.4812C279.84 67.7709 274.932 72.4013 270.39 77.4101C265.659 82.6335 261.988 88.5634 258.695 94.7582C255.301 101.142 252.323 107.728 249.32 114.302C247.327 118.654 244.854 122.73 241.851 126.452C239.34 129.568 236.338 132.142 233.032 134.375C232.931 134.261 232.818 134.16 232.691 134.059L232.717 134.072Z" fill="#7C00FF"/>
<path d="M278.604 25.8706C281.581 28.1542 284.092 30.9299 286.729 33.5668C287.057 33.8948 287.272 34.3364 287.536 34.7276C285.858 35.4593 284.344 36.4939 282.78 37.4402C274.365 42.4869 266.643 48.4546 259.351 55.0027C254.443 59.4186 249.762 64.0616 245.27 68.8938C241.208 73.2592 237.246 77.7129 234.18 82.8732C233.713 82.3433 233.196 81.8386 232.792 81.2582C230.673 78.1924 228.439 75.2274 225.979 72.4265C225.727 72.1363 225.538 71.7704 225.323 71.4424C226.484 69.8274 227.619 68.1999 228.793 66.5975C231.556 62.7999 234.723 59.3429 237.902 55.8859C242.646 50.7382 247.491 45.7294 253.004 41.3514C260.019 35.7874 267.501 31.0308 275.689 27.4098C276.699 26.9682 277.784 26.6528 278.616 25.8706H278.604Z" fill="#00CF00"/>
<path d="M256.512 8.09357C258.165 8.69917 259.59 9.73375 261.003 10.7431C263.792 12.7113 266.555 14.7048 268.965 17.1398C267.425 17.5688 266 18.2501 264.549 18.8935C259.944 20.9248 255.881 23.8519 251.654 26.5141C247.97 28.8356 244.463 31.4094 241.056 34.1472C237.347 37.1374 233.675 40.1276 230.345 43.5341C228.566 45.3509 226.761 47.1425 224.97 48.9467C224.579 49.3378 224.175 49.7289 223.822 50.1579C222.182 52.0883 220.478 53.9682 218.952 55.9869C217.614 57.7406 216.189 59.4565 215.204 61.4752C213.88 60.3649 212.555 59.242 211.218 58.1317C208.909 56.214 206.587 54.3214 204.278 52.4163C204.758 51.7855 205.275 51.1799 205.729 50.5364C209.073 45.7673 212.782 41.3262 216.946 37.2383C221.891 32.3935 227.102 27.8388 232.452 23.4482C236.691 19.9533 241.069 16.6477 245.788 13.8216C249.27 11.7398 252.853 9.83468 256.524 8.1188L256.512 8.09357Z" fill="#FFA700"/>
<path d="M234.18 82.8732C237.246 77.7129 241.208 73.2592 245.27 68.8938C249.762 64.0616 254.443 59.4186 259.351 55.0027C266.643 48.4546 274.365 42.4995 282.78 37.4402C284.344 36.4939 285.858 35.472 287.536 34.7276C287.827 34.9925 288.167 35.2196 288.407 35.535C290.438 38.1719 292.444 40.8089 294.45 43.4584C294.64 43.6981 294.728 44.0261 294.867 44.3037C294.488 44.5813 294.122 44.9093 293.706 45.1238C289.013 47.4958 284.635 50.3598 280.408 53.4761C278.616 54.8009 276.926 56.2266 275.286 57.7406C271.955 60.8065 268.548 63.784 265.255 66.8751C262.946 69.0578 260.663 71.291 258.568 73.6756C256.474 76.0475 254.556 78.5961 252.651 81.1321C249.371 85.5227 246.595 90.254 243.882 95.0232C243.34 95.982 242.911 97.0166 242.431 98.0133C242.066 97.1428 241.687 96.2722 241.334 95.4143C239.807 91.7428 237.801 88.3489 235.543 85.0811C235.051 84.362 234.458 83.7185 234.18 82.8732Z" fill="#0000FF"/>
<path d="M215.192 61.45C216.176 59.4439 217.589 57.728 218.939 55.9617C220.478 53.9556 222.169 52.0631 223.809 50.1327C224.175 49.7037 224.566 49.3252 224.957 48.9215C226.749 47.1173 228.553 45.3257 230.332 43.5089C233.663 40.1024 237.347 37.1122 241.044 34.122C244.45 31.3842 247.958 28.8103 251.642 26.4889C255.868 23.8267 259.931 20.8996 264.536 18.8683C265.987 18.2249 267.413 17.5436 268.952 17.1146C269.091 17.1777 269.267 17.2155 269.368 17.3165C272.447 20.1552 275.513 22.994 278.591 25.8454C277.758 26.6276 276.673 26.9431 275.664 27.3847C267.476 31.0183 259.994 35.7748 252.979 41.3262C247.478 45.6916 242.621 50.7131 237.877 55.8607C234.697 59.3051 231.531 62.7621 228.767 66.5724C227.607 68.1747 226.459 69.8023 225.298 71.4172C225.033 71.2406 224.73 71.1144 224.516 70.8999C221.387 67.7457 218.27 64.5915 215.154 61.4373L215.192 61.45Z" fill="#FFDC00"/>
<path d="M143.226 110.39C142.015 110.075 140.803 109.747 139.479 109.394C140.299 107.249 140.955 105.167 142.229 103.35C144.323 102.909 146.418 102.518 148.5 102.025C153.736 100.776 158.984 99.5399 164.195 98.2026C169.343 96.8904 174.528 95.8685 179.777 95.0358C181.959 94.6951 184.142 94.3544 186.337 94.0516C188.003 93.8245 189.643 93.6479 191.308 93.6605C192.696 93.6605 192.86 93.8498 193.289 95.2124C194.98 100.587 196.633 105.962 198.386 111.311C199.333 114.175 200.392 117.002 201.515 119.79C203.193 123.991 204.897 128.18 206.713 132.318C208.177 135.662 209.842 138.917 211.382 142.235C211.71 142.954 211.924 143.724 212.189 144.468C210.915 148.38 209.476 152.215 207.874 156C207.483 155.129 207.13 154.246 206.701 153.401C205.527 151.143 204.291 148.922 203.143 146.651C202.424 145.238 201.894 143.724 201.124 142.336C199.509 139.409 198.058 136.406 196.658 133.378C194.614 128.975 192.936 124.42 191.081 119.954C189.353 115.778 187.877 111.488 186.602 107.135C186.287 106.063 185.959 105.003 185.568 103.968C185.151 102.871 184.748 102.732 183.524 102.934C180.786 103.375 178.048 103.804 175.31 104.196C173.43 104.46 171.525 104.599 169.658 104.902C166.605 105.407 163.589 106.075 160.536 106.53C155.515 107.274 150.543 108.233 145.61 109.457C144.778 109.659 143.894 109.747 143.226 110.39Z" fill="#E192B2"/>
<path d="M221.589 123.714C220.213 126.464 218.838 129.215 217.463 131.965C215.217 128.496 213.161 124.925 211.722 121.026C210.12 116.711 208.404 112.434 206.89 108.094C204.632 101.647 202.512 95.162 200.998 88.4877C200.859 87.8695 200.708 87.2513 200.506 86.6457C200.216 85.7247 199.926 85.5228 198.954 85.5102C198.563 85.5102 198.159 85.5606 197.768 85.5733C192.204 85.813 186.741 86.898 181.253 87.7307C176.938 88.3868 172.661 89.2447 168.358 90.0018C163.198 90.9228 158.05 91.8438 152.89 92.7396C151.099 93.055 149.37 93.7363 147.515 93.7237C149.635 89.9387 151.957 86.2798 154.429 82.7345C154.821 82.6966 155.224 82.6966 155.615 82.6083C164.523 80.5392 173.569 79.227 182.628 78.0663C189.403 77.1957 196.216 76.5775 203.042 76.199C207.647 75.9467 206.739 75.177 207.647 79.7822C208.53 84.299 209.401 88.8284 210.549 93.2947C212.542 101.092 215.141 108.675 218.182 116.106C219.229 118.68 220.44 121.178 221.576 123.714H221.589Z" fill="#725000"/>
<path d="M221.589 123.714C220.453 121.178 219.242 118.68 218.195 116.106C215.167 108.675 212.555 101.092 210.561 93.2947C209.413 88.8284 208.555 84.2989 207.66 79.7821C206.751 75.177 207.66 75.934 203.055 76.199C196.241 76.5775 189.416 77.1957 182.641 78.0663C173.582 79.227 164.535 80.5391 155.628 82.6083C155.25 82.6966 154.846 82.6966 154.442 82.7345C156.839 79.1513 159.325 75.6312 161.974 72.2499C167.046 71.127 172.181 70.4079 177.304 69.6256C178.565 69.5373 179.814 69.4364 181.076 69.3481C185.959 69.02 190.854 68.692 195.737 68.364C196.052 68.3892 196.368 68.4397 196.67 68.4397C200.847 68.4397 205.023 68.4397 209.186 68.4397C210.763 68.4397 212.328 68.528 213.88 68.8686C214.069 70.2691 214.157 71.6948 214.46 73.0826C215.507 77.9275 216.63 82.7597 218.296 87.4405C218.296 87.5919 218.283 87.7559 218.321 87.9073C219.709 93.3956 221.311 98.8082 223.065 104.196C223.14 104.41 223.304 104.599 223.431 104.801C223.38 105.621 223.771 106.34 224.024 107.072C224.995 109.886 225.803 112.762 227.203 115.412C225.336 118.175 223.456 120.951 221.589 123.714Z" fill="#111011"/>
<path d="M147.541 93.7236C149.395 93.7236 151.111 93.0423 152.915 92.7395C158.076 91.8437 163.236 90.9227 168.384 90.0016C172.686 89.2446 176.963 88.3867 181.278 87.7306C186.766 86.8979 192.229 85.8129 197.793 85.5732C198.184 85.5605 198.588 85.4974 198.979 85.5101C199.951 85.5101 200.241 85.7246 200.531 86.6456C200.72 87.2512 200.872 87.8694 201.023 88.4876C202.537 95.1619 204.657 101.647 206.915 108.094C208.442 112.434 210.145 116.711 211.748 121.026C213.186 124.925 215.242 128.495 217.488 131.965C216.946 133.265 216.403 134.564 215.861 135.851C214.649 138.728 213.426 141.604 212.214 144.481C211.949 143.737 211.748 142.954 211.407 142.248C209.868 138.942 208.202 135.674 206.739 132.331C204.922 128.193 203.219 124.004 201.541 119.802C200.418 117.002 199.358 114.175 198.412 111.324C196.658 105.974 194.992 100.587 193.314 95.225C192.885 93.8498 192.721 93.6731 191.334 93.6731C189.668 93.6731 188.028 93.8371 186.363 94.0642C184.167 94.367 181.985 94.7077 179.802 95.0484C174.566 95.8811 169.368 96.903 164.22 98.2152C159.009 99.5525 153.761 100.789 148.525 102.038C146.443 102.53 144.349 102.921 142.254 103.363C142.317 102.543 142.809 101.912 143.163 101.218C144.513 98.6568 145.85 96.0829 147.566 93.7362L147.541 93.7236Z" fill="#80C5DB"/>
<path d="M256.512 8.09359C252.828 9.80947 249.257 11.702 245.775 13.7964C241.056 16.6225 236.678 19.9407 232.439 23.423C227.102 27.8262 221.879 32.3683 216.933 37.2131C212.769 41.2883 209.06 45.7421 205.717 50.5112C205.262 51.1547 204.758 51.7729 204.266 52.3911C201.667 51.1547 199.484 49.2748 197.2 47.5715C196.506 47.0542 196.443 46.7136 196.86 45.9313C198.159 43.471 199.623 41.0991 201.225 38.8281C203.37 35.7748 205.742 32.8856 208.139 30.0216C215.621 21.0636 224.289 13.4053 233.827 6.71836C235.316 5.67117 236.905 4.76276 238.445 3.77865C239.277 3.24875 240.198 2.95856 241.157 3.03426C246.683 3.46323 251.97 4.63659 256.512 8.09359Z" fill="#ED0000"/>
<path d="M143.226 110.39C143.894 109.747 144.778 109.659 145.61 109.457C150.531 108.246 155.515 107.287 160.536 106.53C163.589 106.076 166.605 105.394 169.658 104.902C171.538 104.599 173.43 104.461 175.31 104.196C178.048 103.805 180.786 103.388 183.524 102.934C184.748 102.732 185.151 102.871 185.568 103.969C185.959 105.003 186.299 106.076 186.602 107.135C187.877 111.488 189.353 115.778 191.081 119.954C192.936 124.433 194.614 128.975 196.658 133.378C198.058 136.406 199.509 139.409 201.124 142.336C201.894 143.724 202.424 145.238 203.143 146.651C204.304 148.922 205.54 151.143 206.701 153.401C207.142 154.246 207.483 155.13 207.874 156C207.559 156.972 207.243 157.956 206.953 158.877C206.36 159.079 206.171 158.65 205.931 158.385C202.84 154.953 199.774 151.509 196.683 148.102C195.295 146.575 193.844 145.099 192.431 143.598C192.532 142.841 192.204 142.21 191.927 141.541C190.45 138.11 188.936 134.703 187.523 131.246C185.479 126.25 183.486 121.228 182.022 116.018C181.656 114.718 181.24 113.431 180.799 112.157C180.433 111.11 180.155 110.883 179.032 110.958C176.976 111.097 174.907 111.223 172.875 111.539C168.485 112.207 164.144 113.154 159.842 114.276C158.404 114.655 156.865 114.794 155.552 115.626C151.553 113.62 147.314 112.182 143.213 110.39H143.226Z" fill="#ECEBEA"/>
<path d="M177.316 69.613C172.194 70.3953 167.059 71.1144 161.987 72.2373C166.63 65.1845 171.841 58.6112 178.086 52.8958C179.966 51.1799 182.022 49.6911 184.344 48.5935C185.505 48.0383 186.728 47.7103 187.99 47.5463C189.012 47.4075 190.034 47.4327 191.043 47.8112C194.109 48.9593 196.948 50.4986 199.459 52.6182C198.348 53.0219 197.2 53.3374 196.128 53.8294C191.788 55.8103 187.864 58.4598 184.268 61.5761C181.581 63.9102 179.133 66.5093 177.316 69.613Z" fill="#ED0000"/>
<path d="M155.552 115.626C156.852 114.794 158.391 114.655 159.842 114.276C164.144 113.166 168.485 112.207 172.875 111.538C174.906 111.223 176.976 111.097 179.032 110.958C180.155 110.882 180.433 111.097 180.799 112.157C181.24 113.431 181.656 114.718 182.022 116.017C183.486 121.228 185.492 126.25 187.523 131.246C188.936 134.703 190.438 138.122 191.926 141.541C192.217 142.197 192.532 142.841 192.431 143.598C190.829 142.185 189.214 140.772 187.624 139.333C184.912 136.886 182.224 134.413 179.524 131.952C177.354 129.972 175.007 128.193 172.585 126.515C167.172 122.755 161.659 119.146 155.88 115.942C155.742 115.866 155.653 115.727 155.54 115.614L155.552 115.626ZM174.78 113.267C171.336 113.191 169.216 114.428 168.32 116.724C167.425 119.033 167.967 121.152 169.67 122.868C171.765 124.975 174.351 125.594 177.127 124.584C180.13 123.487 181.619 120.156 180.117 117.153C178.868 114.655 176.786 113.418 174.768 113.267H174.78Z" fill="#E9E74B"/>
<path d="M177.316 69.613C179.133 66.5093 181.581 63.9102 184.268 61.5761C187.864 58.4598 191.788 55.8103 196.128 53.8294C197.2 53.3374 198.348 53.022 199.459 52.6182C200.784 53.1607 201.869 54.107 202.991 54.9523C204.821 56.3023 206.726 57.5766 208.366 59.179C206.84 59.6079 205.326 60.0874 203.988 60.9453C200.847 62.9766 198.109 65.4621 195.749 68.364C190.867 68.692 185.971 69.02 181.089 69.3481C179.827 69.4364 178.578 69.5247 177.316 69.6257V69.613Z" fill="#FFA700"/>
<path d="M223.431 104.801C223.304 104.599 223.14 104.423 223.065 104.196C221.324 98.8209 219.709 93.3957 218.321 87.9074C218.283 87.756 218.308 87.5919 218.296 87.4405C218.687 87.062 219.103 86.6835 219.469 86.2798C220.819 84.8163 222.446 83.7186 224.137 82.6966C226.017 81.5611 227.947 81.2583 229.941 82.4821C230.13 82.5957 230.37 82.6462 230.597 82.7219L230.559 82.684C230.622 82.9616 230.811 83.0878 231.076 83.113C231.871 83.7943 232.338 84.7279 232.881 85.5859C234.786 88.6896 236.64 91.806 237.99 95.1999C236.754 95.0863 235.568 94.6321 234.281 95.162C232.048 96.083 230.042 97.3826 228.465 99.1489C227.052 100.739 225.411 102.139 224.301 103.994C224.112 104.309 223.721 104.524 223.431 104.776V104.801Z" fill="#0000FF"/>
<path d="M223.431 104.801C223.721 104.536 224.112 104.334 224.301 104.019C225.411 102.164 227.052 100.751 228.465 99.174C230.042 97.4077 232.048 96.1082 234.281 95.1871C235.568 94.6572 236.754 95.1114 237.99 95.225C239.113 97.4329 239.795 99.767 240.299 102.177C240.413 102.694 240.4 103.073 239.908 103.401C235.341 106.353 231.632 110.239 228.175 114.39C227.872 114.756 227.518 115.071 227.19 115.412C225.777 112.762 224.983 109.886 224.011 107.072C223.759 106.34 223.368 105.621 223.418 104.801H223.431Z" fill="#7C00FF"/>
<path d="M230.61 82.7344C230.395 82.6587 230.155 82.6082 229.953 82.4947C227.973 81.2583 226.042 81.5737 224.15 82.7092C222.459 83.7185 220.832 84.8288 219.482 86.2923C219.103 86.6961 218.699 87.062 218.308 87.4531C216.643 82.7723 215.532 77.94 214.473 73.0952C214.17 71.72 214.082 70.2943 213.892 68.8812C214.536 68.4144 215.28 68.2756 216.05 68.263C216.731 68.2504 217.425 68.1999 218.106 68.1747C220.087 69.7391 221.727 71.6695 223.418 73.5242C225.702 76.0223 227.947 78.5583 229.941 81.3087C230.256 81.7377 230.723 82.1162 230.597 82.7596L230.61 82.7344Z" fill="#00CD00"/>
<path d="M233.953 112.144C235.644 109.898 237.864 108.258 240.186 106.732C240.236 106.694 240.337 106.744 240.489 106.769C240.564 108.372 240.186 109.898 239.555 111.362C237.713 115.664 235.871 119.967 233.966 124.244C232.351 127.865 230.61 131.435 229.474 135.485C227.998 133.429 226.711 131.46 225.424 129.492C226.345 128.458 226.522 127.07 227.153 125.896C229.083 122.288 230.938 118.629 232.818 114.996C233.171 114.302 233.663 113.646 233.474 112.788V112.813C233.802 112.724 233.928 112.472 233.978 112.157L233.953 112.144Z" fill="#7C00FF"/>
<path d="M218.119 68.162C217.438 68.1999 216.744 68.2377 216.062 68.2504C215.28 68.263 214.548 68.4018 213.905 68.8686C212.353 68.5405 210.789 68.4396 209.212 68.4396C205.035 68.4396 200.859 68.4396 196.696 68.4396C196.38 68.4396 196.065 68.3891 195.762 68.3639C198.121 65.4621 200.859 62.9765 204.001 60.9452C205.338 60.0747 206.852 59.6079 208.379 59.1789C208.707 59.3934 209.073 59.57 209.363 59.8224C212.429 62.4593 215.457 65.1214 218.132 68.162H218.119Z" fill="#FFDC00"/>
<path d="M233.461 112.775C233.65 113.633 233.171 114.302 232.805 114.983C230.925 118.629 229.07 122.275 227.14 125.884C226.509 127.057 226.332 128.445 225.411 129.48C223.103 127.347 223.746 127.095 224.806 125.329C226.989 121.682 229.108 117.998 231.682 114.604C232.199 113.923 232.616 113.141 233.448 112.762L233.461 112.775Z" fill="#0000FF"/>
<path d="M231.089 83.1256C230.811 83.1129 230.622 82.9868 230.572 82.6966C230.862 82.6966 230.988 82.8858 231.089 83.1256Z" fill="#00CD00"/>
<path d="M233.953 112.144C233.903 112.46 233.776 112.712 233.436 112.8C233.448 112.46 233.675 112.283 233.953 112.144Z" fill="#0000FF"/>
<path d="M233.057 134.375C232.969 134.564 232.855 134.791 232.641 134.602C232.452 134.451 232.59 134.223 232.717 134.059C232.843 134.148 232.956 134.261 233.057 134.375Z" fill="#7C00FF"/>
<path d="M174.78 113.254C176.799 113.393 178.881 114.642 180.13 117.14C181.631 120.143 180.13 123.474 177.14 124.572C174.364 125.594 171.778 124.963 169.683 122.856C167.967 121.14 167.437 119.02 168.333 116.711C169.229 114.415 171.349 113.179 174.793 113.254H174.78ZM173.973 115.059C172.017 115.071 170.528 115.98 169.986 117.393C169.38 119.008 169.986 120.888 171.513 122.036C172.421 122.73 173.481 123.133 174.604 123.146C176.193 123.171 177.619 122.591 178.364 121.102C179.057 119.714 178.843 118.326 177.935 117.065C176.925 115.664 175.487 115.109 173.973 115.059Z" fill="#80006E"/>
<path d="M173.973 115.071C175.487 115.122 176.913 115.664 177.934 117.077C178.843 118.339 179.07 119.739 178.363 121.115C177.606 122.616 176.193 123.184 174.604 123.159C173.481 123.146 172.434 122.742 171.513 122.048C169.999 120.888 169.38 119.02 169.986 117.405C170.516 116.005 172.017 115.084 173.973 115.071Z" fill="#E9E74B"/>
</svg>
