<svg width="750" height="91" viewBox="0 0 750 91" fill="none" xmlns="http://www.w3.org/2000/svg">
<path d="M62.6132 41.6014L44.5408 87.9123L0 87.1771L0.0139125 86.5321C6.72669 86.643 10.4065 82.7104 14.2742 75.3098C20.5418 63.3107 36.4507 23.145 36.6177 13.1019C36.7151 7.43526 32.4718 5.95098 27.4424 5.86775L27.4563 5.22272L58.6968 5.73597L58.6829 6.38101C50.2937 6.24229 45.7095 10.1611 43.8035 15.793L31.4631 51.2562L46.3077 51.4989C56.5056 51.6654 60.6237 44.6532 61.9663 41.5875L62.6132 41.6014Z" fill="white"/>
<path d="M62.6132 41.6014L44.5408 87.9123L0 87.1771L0.0139125 86.5321C6.72669 86.643 10.4065 82.7104 14.2742 75.3098C20.5418 63.3107 36.4507 23.145 36.6177 13.1019C36.7151 7.43526 32.4718 5.95098 27.4424 5.86775L27.4563 5.22272L58.6968 5.73597L58.6829 6.38101C50.2937 6.24229 45.7095 10.1611 43.8035 15.793L31.4631 51.2562L46.3077 51.4989C56.5056 51.6654 60.6237 44.6532 61.9663 41.5875L62.6132 41.6014Z" fill="white"/>
<path d="M114.27 40.6373C108.698 57.117 96.3857 89.3272 86.96 89.5422C79.6003 89.7087 80.8594 76.6762 83.1897 65.6759C78.7864 76.4612 73.7918 89.8405 66.1747 90.0069C54.3004 90.2705 62.8218 55.8269 67.6634 41.6846C72.3867 27.9308 79.2247 21.7232 86.1948 21.5636C91.4885 21.4457 93.8676 23.9635 97.61 23.8802C99.2865 23.8456 100.441 23.5612 102.472 21.9659L103.001 22.4722C96.4414 29.4428 93.6937 39.2918 93.8397 45.86C93.9441 50.4932 96.0657 52.893 99.4186 52.8167C104.198 52.7127 108.19 46.6993 110.124 40.7275L114.256 40.6373H114.27ZM90.5494 31.2531C90.4729 27.91 88.5043 26.4049 86.1809 26.4604C78.696 26.6268 72.5536 40.8038 72.7067 47.4969C72.7832 50.9718 74.5083 52.9971 77.2213 52.9346C84.3236 52.7751 90.7025 37.9531 90.5494 31.26V31.2531Z" fill="white"/>
<path d="M134.91 75.8023C143.584 58.3031 157.956 23.6375 158.38 13.6013C158.47 7.93468 154.491 6.58911 149.33 6.3741V5.72906L170.644 6.06892C183.297 6.27006 187.854 12.006 187.429 22.4307C187.102 34.9153 179.84 52.6989 175.402 63.9558C168.946 79.8182 161.19 88.3215 144.927 88.0649L122.465 87.7043V87.0592C127.898 87.1424 131.056 83.5913 134.923 75.7953L134.91 75.8023ZM166.275 12.1864L153.371 51.7694L162.018 51.9082C172.995 52.0816 179.937 37.7728 180.41 24.3866C180.689 14.9885 176.473 12.3528 169.886 12.2419L166.268 12.1864H166.275Z" fill="white"/>
<path d="M192.96 9.41199V8.76696C197.996 8.63517 203.157 4.64011 204.834 0H205.481C204.966 4.50832 208.583 8.87793 212.848 9.13456V9.77959C208.458 10.2998 202.782 14.1631 200.98 19.1846H200.333C200.716 14.5515 197.746 9.78653 192.967 9.40506L192.96 9.41199ZM221.647 41.7055C215.074 59.7318 202.573 89.9931 190.956 90.0069C180.237 90.0139 183.318 67.2295 192.598 41.7263C197.106 29.3665 197.231 24.2132 191.033 24.2201V23.5751L206.782 23.5612C202.524 28.3261 197.627 38.5011 197.634 46.0959C197.634 51.2423 200.222 53.434 204.222 53.4271C209.516 53.4271 215.192 47.8853 217.508 41.6985H221.64L221.647 41.7055Z" fill="white"/>
<path d="M229.556 42.1008C227.887 49.543 230.864 57.4083 237.243 56.3818C240.937 55.7853 242.523 52.6572 242.008 49.4806C240.957 43.0025 232.262 41.0119 230.94 32.883C229.987 27.0361 233.41 21.529 239.657 20.5163C242.335 20.0863 243.879 20.7452 246.94 20.2528C248.088 20.0655 249.465 19.7118 251.371 16.9305L251.496 16.9097L248.915 33.2367L248.275 33.3408C247.135 27.9169 244.429 24.9622 240.735 25.5587C237.806 26.0304 236.012 28.6729 236.547 31.9744C238.078 41.3795 255.259 39.2571 250.585 67.6595C248.95 77.7027 244.568 88.5851 236.54 89.8821C222.649 92.1293 221.459 63.8864 225.48 42.7597L229.556 42.1008Z" fill="white"/>
<path d="M289.992 36.0943C287.363 55.3414 280.859 87.3851 269.492 89.7919C257.117 92.4137 254.265 70.3784 257.917 42.8915C259.684 29.4913 263.002 21.5428 269.826 20.1002C272.984 19.4343 274.668 20.5232 277.193 19.9892C278.584 19.6979 280.253 19.4759 281.888 16.6253L282.013 16.5975L279.558 33.5696L278.925 33.7014C277.951 26.6684 274.946 24.9345 271.788 25.6072C266.355 26.7586 263.44 34.7487 264.922 42.3297C266.188 48.9049 270.508 51.8041 276.191 50.6042C281.749 49.4251 284.998 43.6059 285.958 36.9543L289.999 36.1012L289.992 36.0943Z" fill="white"/>
<path d="M293.24 43.4186C294.673 30.4624 298.221 21.7579 306.617 19.6771C321.657 15.9525 322.429 40.4362 319.89 61.7571C318.172 76.2392 315.807 87.5725 307.41 89.6532C292.121 93.4402 290.854 65.8978 293.24 43.4186ZM314.554 30.7121C313.372 25.961 310.429 23.7762 307.049 24.6085C300.28 26.2801 298.006 37.4607 299.779 44.5769C301.087 49.8274 304.496 52.2966 308.252 51.3672C315.396 49.5985 316.419 38.2028 314.547 30.7052L314.554 30.7121Z" fill="white"/>
<path d="M391.31 39.4791C385.007 61.1884 375.102 88.9458 359.77 89.9723C345.211 90.9433 344.063 69.99 352.146 42.0939C355.29 31.1768 361.14 21.8827 368.869 21.3625C373.634 21.0435 377.307 23.6375 377.641 28.6452C378.253 37.7659 369.37 48.0379 359.784 47.9062C361.579 51.5267 365.335 53.4687 370.49 53.1219C376.931 52.6919 385.188 46.5883 387.192 39.7496L391.317 39.4721L391.31 39.4791ZM358.727 43.7238L358.803 44.8821C365.766 44.5422 372.263 37.2734 371.86 31.2323C371.686 28.666 370.302 27.3343 368.111 27.48C362.573 27.8476 358.226 36.3995 358.72 43.7238H358.727Z" fill="white"/>
<path d="M439.697 37.8075C435.127 54.3357 424.832 87.4962 415.566 88.273C410.676 88.6822 408.554 84.9854 408.053 79.0829C406.766 63.8171 417.479 40.1865 416.714 31.0728C416.456 27.9932 414.773 26.4535 411.81 26.7032C403.573 27.3898 397.341 41.0882 397.967 48.5304C398.147 50.7082 398.836 52.7196 401.285 52.5185C404.756 52.2272 406.919 47.1363 407.782 45L408.422 44.9445C400.408 72.8753 403.469 89.2856 395.108 89.9861C385.327 90.8046 386.058 67.0977 392.993 41.7193C396.471 29.1585 397.055 23.8109 388.826 24.4975L388.77 23.8594L402.926 22.6734L400.499 30.7606L400.756 30.7398C403.886 26.3425 407.817 20.7175 414.634 20.1487C419.524 19.7395 422.46 22.3335 422.842 26.828C423.329 32.5986 420.31 39.8328 420.762 45.215C421.061 48.8078 423.287 50.5626 425.986 50.3337C430.487 49.9592 433.896 44.244 435.586 38.1612L439.704 37.8144L439.697 37.8075Z" fill="white"/>
<path d="M550.942 40.6373C545.37 57.117 533.057 89.3272 523.631 89.5422C516.272 89.7087 517.531 76.6762 519.861 65.6759C515.458 76.4612 510.463 89.8405 502.846 90.0069C490.972 90.2705 499.493 55.8269 504.335 41.6846C509.058 27.9308 515.896 21.7232 522.866 21.5636C528.16 21.4457 530.539 23.9635 534.281 23.8802C535.958 23.8456 537.113 23.5612 539.144 21.9659L539.672 22.4722C533.113 29.4428 530.365 39.2918 530.511 45.86C530.615 50.4932 532.737 52.893 536.09 52.8167C540.869 52.7127 544.862 46.6993 546.796 40.7275L550.928 40.6373H550.942ZM527.221 31.2531C527.144 27.91 525.176 26.4049 522.852 26.4604C515.367 26.6268 509.225 40.8038 509.378 47.4969C509.455 50.9718 511.18 52.9971 513.893 52.9346C520.995 52.7751 527.374 37.9531 527.221 31.26V31.2531Z" fill="white"/>
<path d="M592.623 9.41199V8.76696C597.66 8.63517 602.821 4.64011 604.498 0H605.144C604.63 4.50832 608.247 8.87793 612.511 9.13456V9.77959C608.122 10.2998 602.445 14.1631 600.644 19.1846H599.997C600.379 14.5515 597.409 9.78653 592.63 9.40506L592.623 9.41199ZM621.311 41.7055C614.737 59.7318 602.237 89.9931 590.62 90.0069C579.9 90.0139 582.982 67.2295 592.261 41.7263C596.769 29.3665 596.894 24.2132 590.696 24.2201V23.5751L606.445 23.5612C602.188 28.3261 597.291 38.5011 597.298 46.0959C597.298 51.2423 599.886 53.434 603.885 53.4271C609.179 53.4271 614.855 47.8853 617.172 41.6985H621.304L621.311 41.7055Z" fill="white"/>
<path d="M727.067 42.1008C725.397 49.543 728.375 57.4083 734.754 56.3818C738.447 55.7853 740.033 52.6572 739.519 49.4806C738.468 43.0025 729.773 41.0119 728.451 32.883C727.498 27.0361 730.921 21.529 737.167 20.5163C739.846 20.0863 741.39 20.7452 744.451 20.2528C745.598 20.0655 746.976 19.7118 748.882 16.9305L749.007 16.9097L746.426 33.2367L745.786 33.3408C744.645 27.9169 741.939 24.9622 738.246 25.5587C735.317 26.0304 733.522 28.6729 734.058 31.9744C735.588 41.3795 752.77 39.2571 748.096 67.6595C746.461 77.7027 742.078 88.5851 734.051 89.8821C720.159 92.1293 718.97 63.8864 722.991 42.7597L727.067 42.1008Z" fill="white"/>
<path d="M718.288 39.4791C711.986 61.1884 702.08 88.9458 686.749 89.9723C672.189 90.9433 671.041 69.99 679.124 42.0939C682.269 31.1768 688.119 21.8827 695.847 21.3625C700.612 21.0435 704.285 23.6375 704.619 28.6452C705.231 37.7659 696.348 48.0379 686.762 47.9062C688.557 51.5267 692.314 53.4687 697.468 53.1219C703.91 52.6919 712.167 46.5883 714.17 39.7496L718.295 39.4721L718.288 39.4791ZM685.705 43.7238L685.782 44.8821C692.745 44.5422 699.242 37.2734 698.838 31.2323C698.665 28.666 697.28 27.3343 695.089 27.48C689.552 27.8476 685.204 36.3995 685.698 43.7238H685.705Z" fill="white"/>
<path d="M675.013 37.8075C670.443 54.3357 660.148 87.4962 650.882 88.273C645.992 88.6822 643.87 84.9854 643.369 79.0829C642.082 63.8171 652.795 40.1865 652.03 31.0728C651.772 27.9932 650.089 26.4535 647.125 26.7032C638.889 27.3898 632.656 41.0882 633.283 48.5304C633.463 50.7082 634.152 52.7196 636.601 52.5185C640.072 52.2272 642.235 47.1363 643.098 45L643.738 44.9445C635.724 72.8753 638.785 89.2856 630.424 89.9861C620.643 90.8046 621.373 67.0977 628.309 41.7193C631.787 29.1585 632.371 23.8109 624.142 24.4975L624.086 23.8594L638.242 22.6734L635.815 30.7606L636.072 30.7398C639.202 26.3425 643.133 20.7175 649.95 20.1487C654.84 19.7395 657.775 22.3335 658.158 26.828C658.645 32.5986 655.626 39.8328 656.078 45.215C656.377 48.8078 658.603 50.5626 661.302 50.3337C665.803 49.9592 669.212 44.244 670.902 38.1612L675.02 37.8144L675.013 37.8075Z" fill="white"/>
<path d="M476.127 39.5623C472.412 62.0623 476.649 82.3012 485.928 86.976L446.813 87.9193C459.55 69.9692 475.48 23.7415 475.209 12.547C475.07 6.88735 470.778 5.70132 465.741 5.69438L465.728 5.04934L490.123 4.45979C499.549 4.23091 506.227 8.1913 506.456 17.5894C506.735 29.1723 497.031 39.0629 481.671 39.4374L476.12 39.5692L476.127 39.5623ZM478.93 27.258C478.214 29.7203 477.623 32.0577 477.038 34.513L481.817 34.3951C491.883 34.1523 497.267 26.939 497.058 18.5743C496.898 12.013 493.379 10.5495 488.989 10.6535L483.696 10.7784L478.93 27.2511V27.258Z" fill="white"/>
<path d="M583.837 38.1959C580.332 55.064 571.734 88.6267 562.398 89.9237C549.738 91.6854 551.338 64.9476 556.089 42.0592C557.112 37.2388 558.037 32.6888 558.705 29.0891L551.032 30.1572L550.941 29.5191C557.807 23.6236 562.28 19.2332 566.976 11.8188L567.741 11.7147L565.077 22.4861L574.537 21.1683L573.146 27.0777L563.685 28.3955C562.294 34.3118 561.605 39.6039 562.266 44.3203C563.122 50.4378 566.607 52.033 570.697 51.4643C575.302 50.8262 578.516 44.9168 579.74 38.7647L583.831 38.1959H583.837Z" fill="white"/>
</svg>
