<svg width="873" height="360" viewBox="0 0 873 360" fill="none" xmlns="http://www.w3.org/2000/svg">
<path d="M70.59 249.54L117.05 303.48L86.25 359.16L85.44 358.71C90.08 350.32 87.58 343.03 80.81 333.17C69.84 317.19 29.69 270.12 17.1 263.15C9.99999 259.22 5.27999 263.57 1.79999 269.86L0.98999 269.41L22.59 230.35L23.4 230.8C17.6 241.29 19.48 249.71 25.33 255.89L61.91 295.3L72.18 276.74C79.23 263.99 73.12 254.08 70.14 250.32L70.59 249.51V249.54Z" fill="white"/>
<path d="M117.78 184.13C131.85 204.69 158.12 246.52 150.26 257.45C144.12 265.99 130.29 253.32 119.71 241.17C128.26 255.5 139.28 272.73 132.92 281.56C123.02 295.34 90.93 255.92 78.91 238.19C67.23 220.94 66.01 207.79 71.82 199.7C76.23 193.56 81.17 193.02 84.29 188.67C85.69 186.72 86.36 185.16 86.28 181.47L87.31 181.3C89.65 194.79 98.56 206.42 106.19 211.91C111.58 215.79 116.15 215.43 118.95 211.54C122.93 206 119.49 196.25 114.32 188.91L117.76 184.12L117.78 184.13ZM86.65 203.1C82.76 200.3 79.34 201.26 77.41 203.95C71.17 212.64 82.11 231.86 89.89 237.46C93.93 240.37 97.73 240.14 99.99 237C105.91 228.76 94.44 208.7 86.65 203.1Z" fill="white"/>
<path d="M163.99 205.6C155.49 178.96 135.76 128.97 126.2 118.21C120.66 112.28 115.22 114.84 109.71 119.75L109.08 119.08L131.31 98.29C144.51 85.94 154.9 87.34 164.84 98.5C176.93 111.69 187.16 137.22 193.8 153.23C202.96 175.98 203.45 192.44 186.48 208.31L163.04 230.23L162.41 229.56C168.07 224.27 167.77 217.47 163.99 205.6ZM132.91 108.91L159.04 162.5L168.07 154.06C179.52 143.35 172.41 121.71 159.58 107.45C150.52 97.49 143.55 98.95 136.68 105.38L132.91 108.91Z" fill="white"/>
<path d="M169.33 74.11L168.79 73.36C174.51 69 177.14 60.04 175.2 53.26L175.95 52.72C179.13 58.38 186.99 60.44 192.14 57.18L192.68 57.93C188.03 62.2 184.69 71.44 186.81 78.78L186.06 79.32C182.62 73.61 175.18 70.57 169.33 74.12V74.11ZM229.63 87.65C237.13 114.09 248.02 159.69 234.57 169.42C222.16 178.39 206.63 149.34 196 111.96C190.86 93.83 186.69 87.74 179.51 92.93L178.97 92.18L197.21 79C196.27 88.1 199.13 104.01 205.5 112.83C209.82 118.81 214.65 119.19 219.28 115.84C225.41 111.41 227.34 100.23 224.85 91.11L229.63 87.65Z" fill="white"/>
<path d="M237.84 83.81C239.25 94.64 247.1 103.78 255.15 99.28C259.82 96.67 260.41 91.69 258.16 87.66C253.57 79.45 240.93 81.02 235.17 70.72C231.03 63.31 232.92 54.23 240.81 49.82C244.19 47.93 246.59 48.07 250.46 45.91C251.91 45.1 253.59 43.95 254.78 39.27L254.94 39.18L259.48 62.42L258.68 62.87C254.49 56.13 249.41 53.47 244.74 56.08C241.04 58.15 239.92 62.58 242.26 66.76C248.92 78.67 270.94 67.42 278.59 107.94C281.31 122.26 280.77 139.05 270.63 144.72C253.08 154.53 237.65 117.09 232.7 86.69L237.85 83.81H237.84Z" fill="white"/>
<path d="M324.17 44.05C325.26 71.86 324.08 118.68 308.69 124.9C291.93 131.67 282.44 101.29 280.73 61.6C279.88 42.25 282.58 30.22 291.81 26.49C296.09 24.76 298.73 25.88 302.15 24.5C304.03 23.74 306.32 23.01 307.92 18.59L308.09 18.52L308.86 43.07L308.01 43.42C304.89 33.74 300.23 32.04 295.96 33.77C288.61 36.74 286.49 48.73 290.46 59.06C293.88 68.02 300.67 71.05 308.37 67.94C315.89 64.9 319.01 55.88 318.71 46.26L324.18 44.05H324.17Z" fill="white"/>
<path d="M327.66 44.1C329.7 25.54 334.78 13.07 346.77 10.09C368.25 4.76 369.36 39.83 365.73 70.38C363.28 91.13 359.9 107.36 347.9 110.34C326.06 115.76 324.25 76.3 327.66 44.1ZM358.11 25.9C356.42 19.1 352.22 15.96 347.39 17.16C337.72 19.56 334.48 35.57 337.01 45.77C338.88 53.29 343.75 56.83 349.12 55.5C359.32 52.97 360.78 36.64 358.12 25.9H358.11Z" fill="white"/>
<path d="M475.13 29.64C463.45 59.84 445.89 98.23 423.94 97.78C403.1 97.36 404.08 67.31 419.07 28.5C424.92 13.32 434.39 0.780013 445.46 1.00001C452.28 1.14001 457.18 5.30001 457.03 12.49C456.77 25.58 442.84 39.14 429.22 37.75C431.32 43.14 436.42 46.38 443.8 46.53C453.02 46.72 465.54 39.04 469.23 29.52L475.13 29.64ZM428.23 31.64L428.2 33.3C438.15 33.69 448.31 24.11 448.49 15.45C448.56 11.76 446.76 9.70001 443.63 9.63001C435.7 9.47001 428.45 21.13 428.24 31.64H428.23Z" fill="white"/>
<path d="M544.38 42.54C531.95 63.73 505.44 105.81 492.37 103.45C485.47 102.21 483.91 96.31 485.41 87.95C489.3 66.35 512.84 37.6 515.16 24.72C515.94 20.36 514.19 17.61 510.02 16.86C498.4 14.77 484.72 31.42 482.83 41.95C482.27 45.04 482.48 48.07 485.93 48.69C490.83 49.57 495.7 43.33 497.68 40.69L498.59 40.85C477.17 76.54 475.32 100.38 463.52 98.25C449.72 95.77 459.52 63.23 478.5 30.67C487.96 14.57 490.75 7.39001 479.13 5.30001L479.29 4.39001L499.26 7.98001L492.91 18.27L493.27 18.34C499.22 13.41 506.73 7.08001 516.35 8.81001C523.25 10.05 526.34 14.73 525.2 21.08C523.73 29.25 516.88 38.14 515.51 45.76C514.59 50.84 517.01 54.09 520.82 54.77C527.17 55.91 533.99 49.27 538.58 41.48L544.39 42.53L544.38 42.54Z" fill="white"/>
<path d="M597.62 63.49C578.26 89.8 570.48 118.39 579.26 130.37L528.87 106.21C556.76 91.56 607.1 42.88 614.04 28.41C617.55 21.09 612.86 16.8 606.45 13.52L606.85 12.69L638.28 27.76C650.42 33.58 656.35 42.97 650.53 55.11C643.35 70.08 624.57 76.41 604.78 66.92L597.63 63.49H597.62ZM609.19 49.6C606.68 52.28 604.41 54.88 602.06 57.64L608.21 60.59C621.18 66.81 632.72 61.09 637.9 50.28C641.97 41.8 638.43 37.65 632.78 34.94L625.96 31.67L609.18 49.6H609.19Z" fill="white"/>
<path d="M695.98 127.3C675.58 141.6 634.06 168.34 623.04 160.61C614.43 154.57 626.95 140.59 638.97 129.88C624.74 138.6 607.64 149.8 598.73 143.55C584.84 133.8 623.89 101.27 641.48 89.05C658.6 77.18 671.73 75.8 679.88 81.52C686.07 85.86 686.67 90.79 691.05 93.86C693.01 95.24 694.58 95.89 698.27 95.77L698.45 96.8C684.98 99.29 673.46 108.33 668.06 116.03C664.25 121.47 664.65 126.03 668.57 128.78C674.16 132.7 683.86 129.14 691.15 123.89L695.98 127.28V127.3ZM676.66 96.39C679.41 92.46 678.42 89.06 675.7 87.16C666.94 81.02 647.85 92.18 642.34 100.03C639.48 104.11 639.75 107.9 642.92 110.12C651.22 115.95 671.15 104.24 676.66 96.39Z" fill="white"/>
<path d="M726.84 157.73C705.11 169.43 660.38 190.92 650.38 181.9C636.82 169.67 667.64 146.8 697.12 130.92C703.35 127.6 709.19 124.42 713.76 121.84L705.54 114.43L706.16 113.75C718.93 115.84 727.86 116.68 740.31 115L741.13 115.74L726.86 122.74L736.99 131.88L729.23 135.8L719.1 126.66C711.34 130.59 704.89 134.7 700.32 139.77C694.39 146.34 695.84 151.62 700.22 155.58C705.15 160.03 714.58 158.11 722.46 153.78L726.84 157.73Z" fill="white"/>
<path d="M756.5 190.78C731.18 201.46 687.25 217.86 675.95 205.7C665.53 194.48 692.46 175.51 728.25 160.38C745.61 153.06 751.15 148.17 745.12 141.69L745.8 141.06L761.11 157.55C751.97 157.74 736.52 162.52 728.55 169.92C723.15 174.94 723.36 179.78 727.25 183.97C732.4 189.51 743.73 190.06 752.48 186.46L756.5 190.78ZM762.55 129.27L763.23 128.64C768.26 133.78 777.47 135.3 783.97 132.53L784.6 133.21C779.37 137.06 778.29 145.11 782.16 149.82L781.48 150.45C776.67 146.36 767.09 144.18 760.07 147.18L759.44 146.5C764.68 142.39 766.79 134.63 762.55 129.26V129.27Z" fill="white"/>
<path d="M798.09 247.11C774.53 254.08 726.43 266.69 718.49 256.04C714.3 250.42 717.2 245.04 724 239.97C741.6 226.86 778.43 221.96 788.93 214.13C792.48 211.49 793.08 208.28 790.55 204.88C783.5 195.41 762.13 198.22 753.55 204.61C751.04 206.48 749.11 208.84 751.2 211.65C754.17 215.64 762 214.41 765.25 213.83L765.8 214.57C725.78 225.99 708.13 242.13 700.97 232.51C692.6 221.27 721.98 204.21 758.09 193.41C776 188.12 782.94 184.78 775.89 175.32L776.63 174.77L788.75 191.04L777.08 194.21L777.3 194.51C785.01 194.98 794.82 195.49 800.66 203.33C804.85 208.95 803.91 214.48 798.73 218.34C792.07 223.3 781 225.11 774.79 229.74C770.65 232.83 770.19 236.84 772.51 239.95C776.37 245.13 785.88 244.94 794.56 242.38L798.09 247.11Z" fill="white"/>
<path d="M826.7 299C794.83 304.73 752.91 309.69 741.88 290.71C731.4 272.69 757.58 257.9 798.52 250.52C814.54 247.61 830.17 249.18 835.74 258.75C839.17 264.65 838.17 270.99 831.95 274.61C820.63 281.19 801.81 276.35 795.91 263.99C792.4 268.59 792.28 274.63 795.99 281.01C800.63 288.98 813.69 295.68 823.75 293.89L826.72 298.99L826.7 299ZM800.6 259.98L799.16 260.81C804.01 269.51 817.46 273.21 824.96 268.85C828.15 267 828.98 264.38 827.4 261.67C823.41 254.81 809.69 254.69 800.6 259.97V259.98Z" fill="white"/>
<path d="M829.57 307.48C818.66 308.04 808.94 315.15 812.8 323.53C815.04 328.39 819.96 329.37 824.15 327.44C832.69 323.5 832.11 310.78 842.83 305.84C850.54 302.29 859.45 304.89 863.23 313.1C864.85 316.62 864.53 319 866.38 323.02C867.07 324.53 868.09 326.29 872.66 327.84L872.74 328.01L849.22 330.72L848.83 329.88C855.88 326.23 858.92 321.37 856.69 316.51C854.92 312.66 850.59 311.2 846.23 313.2C833.83 318.91 843.33 341.74 802.34 346.21C787.85 347.81 771.15 345.95 766.29 335.4C757.88 317.14 796.41 304.68 827.11 302.11L829.58 307.47L829.57 307.48Z" fill="white"/>
</svg>
