<svg width="912" height="202" viewBox="0 0 912 202" fill="none" xmlns="http://www.w3.org/2000/svg">
<path d="M0 194.3L29.1695 182.619V22.1872L0 10.5063V7.60245H52.5312L94.8497 152.602L140.333 7.56982H195.475V10.4737L163.369 22.1546V182.652L195.475 194.333V197.237H109.402V194.333L138.571 182.652L139.159 36.1846L86.6601 201.609L35.8909 35.5973V182.652L64.473 194.333V197.237H0V194.333V194.3Z" fill="white"/>
<path d="M192.179 194.3L228.07 182.619V22.1873L192.179 10.5064V7.60254H285.822V10.5064L252.867 22.1873V182.652L285.822 194.333V197.237H192.179V194.333V194.3Z" fill="white"/>
<path d="M282.526 194.3L309.672 182.619V20.719L282.526 10.5064V7.60254H336.199L414.669 143.27V22.1873L384.619 10.5064V7.60254H451.735V10.5064L421.391 22.1873V201.609L316.361 21.6V182.652L346.705 194.333V197.237H282.526V194.333V194.3Z" fill="white"/>
<path d="M473.858 22.1873L449.354 10.5064V7.60254H527.825V10.5064L498.655 22.1873V140.333C498.655 175.931 518.787 193.126 539.506 193.126C560.225 193.126 582.673 175.05 582.673 140.04V22.1873L552.622 10.5064V7.60254H618.27V10.5064L590.275 22.1873V138.278C590.275 180.89 561.987 201.87 533.665 201.87C503.909 201.87 473.858 179.683 473.858 136.516V22.1873Z" fill="white"/>
<path d="M751.294 67.9643H748.684L723.006 14.8785H691.193V182.652L728.259 194.333V197.237H629.363V194.333L666.429 182.652V14.8785H634.029L608.938 67.9643H606.034L616.247 7.56982H741.114L751.327 67.9643H751.294Z" fill="white"/>
<path d="M903.112 194.3V197.204H820.824V194.3L849.994 182.619L828.1 118.733H778.799L758.08 182.619L785.227 194.3V197.204H722.222V194.3L749.923 182.619L809.176 0L875.998 182.652L903.145 194.333L903.112 194.3ZM825.49 111.425L802.748 45.1898L781.148 111.425H825.49Z" fill="white"/>
<path d="M911.336 47.9208L879.558 73.7705V71.887L905.833 35.6779L891.084 7.94458H911.336V47.9208Z" fill="white"/>
</svg>
