<svg width="541" height="54" viewBox="0 0 541 54" fill="none" xmlns="http://www.w3.org/2000/svg">
<g clip-path="url(#clip0_360_1298)">
<path d="M1.72478 8.40099C1.72478 4.58689 1.72478 4.66488 0.937534 4.04101C0.30774 3.57311 -0.00715637 3.10521 -0.00715637 2.55932C3.74857e-07 1.55263 0.865967 1.09182 2.51202 1.09182H9.81906C11.4651 1.09182 12.3311 1.55972 12.3311 2.5735C12.3311 3.11939 12.0162 3.58729 11.3077 4.05519C10.4417 4.60107 10.4417 4.75704 10.4417 6.3876L10.363 7.3234V39.2116C10.5991 44.5002 10.5991 44.8902 11.3077 45.826C12.0162 46.8397 13.1899 47.3785 14.8431 47.3785C17.9062 47.3785 18.8509 45.9748 18.8509 41.6999C18.8509 41.388 18.8509 41.31 18.7721 39.4455L18.3785 8.40099C18.3785 4.66488 18.2998 4.66488 17.0402 3.80706C16.3317 3.33916 16.0168 2.87126 16.0168 2.32537C16.0168 1.15562 16.3317 1.07764 18.4501 1.07764H23.238C25.6713 1.07764 26.1436 1.15562 26.1436 2.32537C26.1436 2.87126 26.2223 2.87126 25.0415 3.87795C24.2542 4.42384 24.1755 4.89174 24.1755 8.15995V8.54987L24.884 39.5164L24.9627 43.3305C24.9627 47.3006 24.1755 49.477 22.0571 51.1076C19.86 52.8941 16.482 53.9859 13.0253 53.9859C7.37145 53.9859 3.28495 51.4195 2.10408 47.3715C1.71046 45.8898 1.71046 45.8189 1.71046 38.4246V8.40099H1.72478Z" fill="white"/>
<path d="M48.6158 8.40099C48.6158 4.58689 48.6158 4.66488 47.7498 4.04101C47.0413 3.57311 46.7264 3.10521 46.7264 2.55932C46.7264 1.38957 47.3562 1.07764 49.2384 1.07764H53.5611C55.4433 1.07764 56.0731 1.38957 56.0731 2.55932C56.0731 3.10521 55.7582 3.57311 55.0497 4.04101C54.1837 4.66488 54.1837 4.58689 54.1837 8.40099V51.2706C54.1837 53.5251 53.8688 53.837 51.593 53.837C49.632 53.837 49.3959 53.759 49.0022 53.4471C48.6086 53.0572 48.6873 53.1351 48.4512 50.0229C48.4512 46.4427 48.0576 45.3581 45.3881 38.1978L37.8449 18.9004V45.6629C37.8449 49.555 37.8449 49.399 38.7108 50.0229C39.4194 50.4908 39.7343 50.9587 39.7343 51.5046C39.7343 52.6743 39.1045 52.9863 37.2222 52.9863H32.3557C30.4734 52.9863 29.8436 52.6743 29.8436 51.5046C29.8436 50.9587 30.1585 50.4908 30.8671 50.0229C31.733 49.399 31.733 49.555 31.733 45.6629V8.40099C31.733 4.58689 31.733 4.66488 30.8671 4.04101C30.1585 3.57311 29.8436 3.10521 29.8436 2.55932C29.8436 1.38957 30.4734 1.07764 32.3557 1.07764H37.5371C39.1832 1.07764 39.2619 1.15562 39.813 2.01344C40.2853 2.63731 43.3484 10.2584 44.3718 12.5979L48.6158 23.4164V8.40099Z" fill="white"/>
<path d="M84.9864 41.629C85.2225 46.3719 85.1438 46.3719 85.5374 46.9957C85.8523 47.6196 86.5609 47.9315 87.6558 47.9315C90.7977 47.9315 92.6799 46.223 96.4515 40.2253C97.3175 38.9776 98.0188 38.3608 98.6486 38.3608C99.5933 38.3608 100.373 39.1407 100.373 40.1474C100.373 40.7712 100.137 42.0119 99.901 43.2596L97.7039 51.7385C97.389 53.2202 96.7592 53.915 95.8217 53.915C95.2706 53.915 95.2706 53.993 94.0969 53.4471C93.3622 53.1352 91.895 52.9792 89.6955 52.9792H76.9708C75.0886 52.9792 74.4588 52.6672 74.4588 51.4975C74.4588 50.9516 74.7737 50.4837 75.4822 50.0158C76.4269 49.314 76.3482 49.4699 76.3482 45.5778V8.401C76.3482 4.5869 76.3482 4.66489 75.4822 4.04102C74.7737 3.57312 74.4588 3.10522 74.4588 2.55933C74.4588 1.38958 75.0886 1.07765 76.9708 1.07765H89.5381C92.1288 1.07765 92.2075 0.999664 93.8607 0.375796C94.1756 0.219829 94.4905 0.141846 94.7267 0.141846C95.9076 0.141846 96.294 0.843697 97.0026 3.722L99.121 11.655C99.2784 12.1229 99.3571 12.5908 99.3571 12.9808C99.4359 13.9166 98.5699 14.8453 97.5536 14.8453C96.8451 14.8453 96.1366 14.2214 95.2778 12.9808C91.3487 6.83424 89.4665 5.27458 87.0332 5.27458C85.3872 5.27458 84.9935 5.82046 84.9935 8.23086V16.2419C84.9935 19.6661 85.3084 20.5239 86.797 20.5239C87.9779 20.5239 88.2928 20.212 89.1516 18.3474C89.6239 17.4896 90.175 17.0997 90.8764 17.0997C91.8998 17.0997 92.8373 18.1135 93.5459 20.056L96.9238 28.8468C97.0026 29.1588 97.0813 29.3927 97.0813 29.9386C97.0813 31.1084 96.5302 31.6472 95.3565 31.6472C94.4905 31.6472 94.2544 31.4132 92.2934 29.0028C90.175 26.4364 88.6793 25.4227 87.0332 25.4227C85.151 25.4227 84.9935 25.8906 84.9935 31.1793V41.6078L84.9864 41.629Z" fill="white"/>
<path d="M102.499 43.4935C102.105 41.3951 101.869 39.6794 101.869 38.6727C101.869 37.1202 102.578 36.1064 103.751 36.1064C104.617 36.1064 105.397 37.0422 106.106 38.8287C108.775 46.4569 110.192 48.0875 112.626 48.0875C115.374 48.0875 116.948 44.8972 116.948 39.2966C116.948 33.696 115.302 30.5057 110.901 26.7696C106.5 23.0335 105.405 21.7149 104.302 19.1414C103.436 17.1989 103.043 15.0154 103.043 12.761C103.043 5.67865 107.366 0.156006 112.862 0.156006C113.728 0.156006 114.744 0.389956 115.925 0.779873C116.397 0.93584 116.712 1.01382 116.87 1.01382C117.185 1.01382 117.657 0.93584 118.208 0.70189C118.602 0.545923 118.917 0.46794 119.31 0.46794C120.334 0.46794 120.956 1.48172 121.271 3.50221L122.295 9.33679C122.531 10.1946 122.531 11.2013 122.531 12.0591C122.531 13.6897 121.98 14.5475 120.806 14.5475C119.546 14.5475 118.924 14.0016 117.428 10.0315C115.932 6.21745 114.601 4.66487 112.948 4.66487C111.295 4.66487 110.121 6.60736 110.121 9.64163C110.121 13.1438 111.302 14.8523 115.46 17.7306C120.799 21.5447 122.216 23.0193 124.098 26.7555C125.594 29.7897 126.374 33.1359 126.374 36.95C126.374 42.5506 124.728 47.4565 121.665 50.8027C119.625 52.9012 117.027 53.993 113.885 53.993C112.547 53.993 111.688 53.837 109.878 53.2131C109.248 52.9792 108.775 52.9012 108.539 52.9012C108.224 52.9012 107.831 52.9792 107.437 53.2131C106.571 53.603 106.492 53.681 105.941 53.681C104.918 53.681 104.295 52.9792 103.98 51.5046L102.485 43.4935H102.499Z" fill="white"/>
<path d="M140.043 45.6699C140.043 48.7821 140.201 49.484 141.067 50.0299C141.933 50.5758 142.169 50.9657 142.169 51.5116C142.169 52.6813 141.539 52.9933 139.657 52.9933H132.035C130.153 52.9933 129.523 52.6813 129.523 51.5116C129.523 50.9657 129.838 50.4978 130.546 50.0299C131.412 49.406 131.412 49.562 131.412 45.6699V8.63485C131.412 5.28865 131.255 4.89873 130.074 3.89203C129.444 3.42413 129.129 2.95623 129.129 2.56632C129.129 1.08463 130.625 0.779785 136.043 0.779785C142.405 0.779785 145.862 2.18349 149.24 5.67856C153.326 10.1945 155.366 15.7172 155.366 22.3316C155.366 32.5261 151.122 37.7369 142.72 38.0488C140.365 38.0488 140.05 38.5167 140.05 41.239V45.677L140.043 45.6699ZM140.043 25.2879C140.043 31.9803 140.358 33.1429 142.555 33.1429C145.225 33.1429 146.563 29.7967 146.563 23.0263C146.563 13.3777 144.445 5.90543 141.618 5.90543C140.83 5.90543 140.358 6.37333 140.201 7.38711C140.201 8.24493 140.043 8.16695 140.043 12.5978V25.2808V25.2879Z" fill="white"/>
<path d="M179.312 41.9409L180.257 46.3789C180.493 47.8606 180.651 48.3994 180.966 48.9453C181.044 49.1792 181.517 49.6471 182.383 50.5049C182.619 50.6609 182.697 50.9728 182.697 51.3628C182.697 52.8444 182.146 52.9933 178.611 52.9933H173.351C171.075 52.9933 170.209 52.6814 170.209 51.5116C170.209 50.9658 170.288 50.6538 171.154 49.9591C171.626 49.6471 171.862 49.1012 171.862 48.4065C171.862 46.9248 171.39 44.5144 170.839 43.9685C170.445 43.4226 170.13 43.4226 166.201 43.4226C164.24 43.4226 163.847 43.5786 163.453 44.4364C163.217 45.0603 162.902 47.0808 162.902 48.4065C162.902 49.0823 163.348 49.7298 164.24 50.349C164.634 50.7389 164.87 51.1288 164.87 51.5187C164.87 52.2986 164.476 52.7665 163.768 52.9224L161.02 53.0004H156.697C154.893 53.0004 153.949 52.5325 153.949 51.5187C153.949 50.9728 154.342 50.5049 155.051 50.115C155.917 49.5691 155.996 49.4912 156.311 48.3285L157.019 44.3584L163.381 6.85548C164.247 2.26154 164.247 1.9567 164.72 1.25485C165.113 0.708965 165.586 0.630981 167.704 0.630981C170.216 0.630981 170.531 0.708965 171.082 1.56678C171.554 2.19065 171.476 2.50258 172.499 6.85548L179.334 41.948L179.312 41.9409ZM164.39 34.2348C164.154 35.1706 164.076 36.8011 164.076 37.0351C164.076 38.1268 165.02 38.6656 166.981 38.6656C169.1 38.6656 169.729 38.3537 169.729 37.3399C169.729 37.106 169.493 34.5396 169.336 33.9937L166.666 18.4325L164.39 34.2277V34.2348Z" fill="white"/>
<path d="M206.1 13.0729C206.179 13.6188 206.257 14.1646 206.257 14.5546C206.257 15.9583 205.628 16.653 204.375 16.653C202.958 16.653 202.336 15.7172 200.919 11.2084C199.58 6.84838 198.407 5.06185 196.911 5.06185C195.265 5.06185 194.399 6.54353 193.533 10.5845C192.824 14.0867 192.352 20.7791 192.352 27.6274C192.352 42.3309 193.69 47.5487 197.612 47.5487C200.36 47.5487 201.856 44.2804 201.856 38.6018C201.856 38.2899 201.856 37.588 201.777 36.4254V34.6389C201.777 32.5404 202.407 31.4486 203.738 31.4486C205.857 31.4486 207.195 34.8728 207.195 39.9275C207.195 48.7184 203.187 54.0071 196.353 54.0071C187.163 54.0071 182.368 46.23 182.368 31.0516C182.368 21.3249 184.723 11.7542 188.731 5.2958C190.849 1.87161 193.289 0.163066 196.195 0.163066C197.061 0.163066 197.92 0.319033 198.865 0.708951C199.337 0.942901 199.809 1.02088 200.203 1.02088C200.596 1.02088 200.596 1.09887 201.849 0.24105C202.085 0.163066 202.321 0.085083 202.715 0.085083C203.896 0.085083 204.361 1.02088 204.755 3.50927L206.093 13.08L206.1 13.0729Z" fill="white"/>
<path d="M220.549 45.67C220.549 49.4061 220.549 49.4841 221.494 50.03C222.203 50.4979 222.518 50.9658 222.518 51.5117C222.518 52.6814 221.809 52.9934 219.927 52.9934H212.541C210.659 52.9934 210.029 52.6814 210.029 51.5117C210.029 50.9658 210.344 50.4979 211.052 50.03C211.918 49.4061 211.918 49.5621 211.918 45.67V8.40099C211.918 4.58689 211.918 4.66488 211.052 4.04101C210.344 3.57311 210.029 3.10521 210.029 2.55932C210.029 1.38957 210.659 1.07764 212.541 1.07764H219.927C221.809 1.07764 222.439 1.38957 222.439 2.55932C222.439 3.10521 222.124 3.57311 221.415 4.04101C220.549 4.66488 220.549 4.58689 220.549 8.40099V45.67Z" fill="white"/>
<path d="M250.078 8.40099C253.063 14.4695 254.945 23.8063 254.945 32.1292C254.945 37.9638 254 43.3305 252.354 46.7547C250.157 51.3486 245.834 53.993 240.495 53.993C231.306 53.993 226.203 45.514 226.203 30.2647C226.203 21.9418 227.849 12.9169 230.526 7.62116C233.038 2.33246 235.707 0.148926 239.479 0.148926C243.88 0.148926 247.409 2.87126 250.085 8.3939L250.078 8.40099ZM236.173 23.7283C236.173 35.0075 236.645 42.7917 237.511 45.826C238.062 47.7685 239.085 48.7822 240.731 48.7822C242.535 48.7822 243.716 47.6125 244.267 45.3581C244.661 43.6495 245.054 39.1336 245.054 35.3195C245.054 27.9252 243.873 12.5199 243.015 8.63494C242.385 5.9906 241.29 4.66488 239.715 4.66488C236.888 4.66488 236.18 8.40099 236.18 23.7283H236.173Z" fill="white"/>
<path d="M283.693 45.6699C283.693 48.7821 283.851 49.484 284.717 50.0299C285.583 50.5758 285.819 50.9657 285.819 51.5116C285.819 52.6813 285.189 52.9933 283.307 52.9933H275.685C273.803 52.9933 273.173 52.6813 273.173 51.5116C273.173 50.9657 273.488 50.4978 274.196 50.0299C275.062 49.406 275.062 49.562 275.062 45.6699V8.63485C275.062 5.28865 274.905 4.89873 273.724 3.89203C273.094 3.42413 272.779 2.95623 272.779 2.56632C272.779 1.08463 274.275 0.779785 279.693 0.779785C286.055 0.779785 289.512 2.18349 292.89 5.67856C296.976 10.1945 299.016 15.7172 299.016 22.3316C299.016 32.5261 294.772 37.7369 286.37 38.0488C284.016 38.0488 283.701 38.5167 283.701 41.239V45.677L283.693 45.6699ZM283.693 25.2879C283.693 31.9803 284.008 33.1429 286.205 33.1429C288.875 33.1429 290.213 29.7967 290.213 23.0263C290.213 13.3777 288.095 5.90543 285.268 5.90543C284.481 5.90543 284.008 6.37333 283.851 7.38711C283.851 8.24493 283.693 8.16695 283.693 12.5978V25.2808V25.2879Z" fill="white"/>
<path d="M322.97 41.9409L323.914 46.3789C324.151 47.8606 324.308 48.3994 324.623 48.9453C324.702 49.1792 325.174 49.6471 326.04 50.5049C326.276 50.6609 326.355 50.9728 326.355 51.3628C326.355 52.8444 325.804 52.9933 322.268 52.9933H317.008C314.732 52.9933 313.866 52.6814 313.866 51.5116C313.866 50.9658 313.945 50.6538 314.811 49.9591C315.283 49.6471 315.52 49.1012 315.52 48.4065C315.52 46.9248 315.047 44.5144 314.496 43.9685C314.102 43.4226 313.788 43.4226 309.859 43.4226C307.898 43.4226 307.504 43.5786 307.11 44.4364C306.874 45.0603 306.559 47.0808 306.559 48.4065C306.559 49.0823 307.005 49.7298 307.898 50.349C308.291 50.7389 308.527 51.1288 308.527 51.5187C308.527 52.2986 308.134 52.7665 307.425 52.9224L304.677 53.0004H300.354C298.551 53.0004 297.606 52.5325 297.606 51.5187C297.606 50.9728 298 50.5049 298.708 50.115C299.574 49.5691 299.653 49.4912 299.968 48.3285L300.676 44.3584L307.039 6.85548C307.905 2.26154 307.905 1.9567 308.377 1.25485C308.771 0.708965 309.243 0.630981 311.361 0.630981C313.873 0.630981 314.188 0.708965 314.739 1.56678C315.212 2.19065 315.133 2.50258 316.156 6.85548L322.991 41.948L322.97 41.9409ZM308.048 34.2348C307.812 35.1706 307.733 36.8011 307.733 37.0351C307.733 38.1268 308.678 38.6656 310.639 38.6656C312.757 38.6656 313.387 38.3537 313.387 37.3399C313.387 37.106 313.151 34.5396 312.993 33.9937L310.324 18.4325L308.048 34.2277V34.2348Z" fill="white"/>
<path d="M350.616 44.0393C351.64 48.7113 351.876 49.328 352.656 49.9519C353.679 50.8877 353.837 51.0437 353.837 51.7384C353.837 52.7522 353.443 52.9862 351.64 52.9862H344.726C342.844 52.9862 342.135 52.6742 342.135 51.6605C342.135 51.2445 342.555 50.727 343.395 50.1079C343.71 49.8739 343.867 49.562 343.867 49.0941C343.867 48.8341 343.657 47.7447 343.238 45.8259L340.726 33.6108H337.663V45.6699C337.663 49.406 337.584 49.406 338.45 50.0299C339.316 50.5758 339.394 50.8877 339.394 51.4336C339.394 52.6033 338.765 52.9862 336.882 52.9862H329.654C327.772 52.9862 327.142 52.6742 327.142 51.5045C327.142 50.9586 327.457 50.4907 328.166 50.0228C329.031 49.3989 329.031 49.5549 329.031 45.6628V11.7471C329.031 4.50881 329.031 4.5868 327.536 3.73607C326.591 3.19018 326.434 3.03422 326.434 2.48833C326.434 1.16261 327.929 0.779785 332.953 0.779785C340.103 0.779785 343.56 1.94954 347.088 5.06179C351.174 8.87589 353.45 14.3205 353.45 20.4671C353.45 26.6136 351.883 29.1799 347.718 31.5903L350.623 44.0393H350.616ZM337.655 22.7995C337.655 26.5356 337.577 27.1595 337.813 27.7762C337.97 28.946 338.757 29.5628 340.246 29.5628C342.994 29.5628 344.647 26.2946 344.647 21.0059C344.647 12.215 342.293 5.28865 339.23 5.28865C337.892 5.28865 337.663 6.30243 337.663 11.9031V22.7924L337.655 22.7995Z" fill="white"/>
<path d="M380.066 41.9409L381.011 46.3789C381.247 47.8606 381.405 48.3994 381.719 48.9453C381.798 49.1792 382.27 49.6471 383.136 50.5049C383.373 50.6609 383.451 50.9728 383.451 51.3628C383.451 52.8444 382.9 52.9933 379.365 52.9933H374.105C371.829 52.9933 370.963 52.6814 370.963 51.5116C370.963 50.9658 371.042 50.6538 371.908 49.9591C372.38 49.6471 372.616 49.1012 372.616 48.4065C372.616 46.9248 372.144 44.5144 371.593 43.9685C371.199 43.4226 370.884 43.4226 366.955 43.4226C364.994 43.4226 364.6 43.5786 364.207 44.4364C363.971 45.0603 363.656 47.0808 363.656 48.4065C363.656 49.0823 364.102 49.7298 364.994 50.349C365.388 50.7389 365.624 51.1288 365.624 51.5187C365.624 52.2986 365.23 52.7665 364.522 52.9224L361.774 53.0004H357.451C355.647 53.0004 354.703 52.5325 354.703 51.5187C354.703 50.9728 355.096 50.5049 355.805 50.115C356.671 49.5691 356.75 49.4912 357.064 48.3285L357.773 44.3584L364.135 6.85548C365.001 2.26154 365.001 1.9567 365.474 1.25485C365.867 0.708965 366.34 0.630981 368.458 0.630981C370.97 0.630981 371.285 0.708965 371.836 1.56678C372.308 2.19065 372.23 2.50258 373.253 6.85548L380.088 41.948L380.066 41.9409ZM365.144 34.2348C364.908 35.1706 364.829 36.8011 364.829 37.0351C364.829 38.1268 365.774 38.6656 367.735 38.6656C369.854 38.6656 370.483 38.3537 370.483 37.3399C370.483 37.106 370.247 34.5396 370.09 33.9937L367.42 18.4325L365.144 34.2277V34.2348Z" fill="white"/>
<path d="M415.02 45.6699C415.02 49.562 415.02 49.4061 415.886 50.0299C416.594 50.4978 416.909 50.9657 416.909 51.5116C416.909 52.6814 416.279 52.9933 414.397 52.9933H407.011C405.129 52.9933 404.499 52.6814 404.499 51.5116C404.499 50.9657 404.814 50.4978 405.523 50.0299C406.389 49.4061 406.389 49.562 406.389 45.6699V11.5912C406.31 8.47893 406.231 6.84837 406.231 6.61442C406.074 5.91256 405.68 5.60063 405.05 5.60063C403.791 5.60063 403.247 6.61442 400.492 13.6896C399.94 15.2422 399.153 16.0221 398.137 16.0221C396.956 16.0221 396.333 15.2422 396.333 13.7676C396.333 13.3777 396.412 12.2859 396.648 11.1233L397.987 2.17645C398.223 0.772745 398.774 0.0779835 399.633 0.0779835C400.184 0.0779835 400.105 0.0779835 401.436 0.779835C401.83 0.857818 403.24 1.01379 405.523 1.09177H416.523C419.113 1.09177 419.035 1.09177 420.688 0.311934C420.924 0.0779835 421.318 0 421.711 0C422.656 0 423.128 0.857818 423.515 3.3462L425.011 13.2288C425.089 13.5408 425.089 13.8527 425.089 13.9307C425.089 15.4124 424.538 16.1851 423.443 16.1851C422.026 16.1851 421.869 15.7172 419.357 9.80465C418.018 6.45845 417.396 5.52265 416.451 5.52265C415.506 5.52265 415.034 6.2245 415.034 7.62111V45.6699H415.02Z" fill="white"/>
<path d="M450.052 8.40099C453.036 14.4695 454.919 23.8063 454.919 32.1292C454.919 37.9638 453.974 43.3305 452.328 46.7547C450.131 51.3486 445.808 53.993 440.469 53.993C431.28 53.993 426.177 45.514 426.177 30.2647C426.177 21.9418 427.823 12.9169 430.5 7.62116C433.012 2.33246 435.681 0.148926 439.453 0.148926C443.854 0.148926 447.383 2.87126 450.059 8.3939L450.052 8.40099ZM436.146 23.7283C436.146 35.0075 436.619 42.7917 437.485 45.826C438.036 47.7685 439.052 48.7822 440.705 48.7822C442.509 48.7822 443.69 47.6125 444.241 45.3581C444.634 43.6495 445.028 39.1336 445.028 35.3195C445.028 27.9252 443.847 12.5199 442.988 8.63494C442.359 5.9906 441.256 4.66488 439.689 4.66488C436.862 4.66488 436.154 8.40099 436.154 23.7283H436.146Z" fill="white"/>
<path d="M460.336 13.6967V6.53642C460.258 4.74989 460.336 4.74989 459.155 3.89207C458.683 3.50216 458.447 3.11224 458.447 2.64434C458.447 1.3966 460.172 0.935791 465.282 0.935791C470.392 0.935791 474.707 2.80031 478.164 6.92634C482.873 12.527 485.549 20.857 485.549 30.1938C485.549 39.5305 483.116 45.989 478.4 50.271C475.494 52.9153 472.825 53.5392 465.99 53.5392C464.809 53.5392 460.966 53.2272 460.258 53.2272C459.077 52.9933 458.533 52.5254 458.533 51.6747C458.533 51.2068 458.769 50.7389 459.32 50.271C460.002 49.7511 460.343 46.6388 460.343 40.9342V13.6967H460.336ZM469.132 40.6152C469.132 47.1516 469.132 47.3856 469.526 47.9315C469.762 48.4773 470.234 48.7893 470.943 48.7893C474.399 48.7893 476.36 42.2528 476.36 30.7397C476.36 17.8228 473.612 6.30956 470.549 6.30956C469.289 6.30956 469.132 7.16738 469.132 13.3139V40.6152Z" fill="white"/>
<path d="M499.613 41.629C499.849 46.3719 499.77 46.3719 500.164 46.9957C500.479 47.6196 501.187 47.9315 502.282 47.9315C505.424 47.9315 507.306 46.223 511.078 40.2253C511.944 38.9776 512.645 38.3608 513.275 38.3608C514.219 38.3608 515 39.1407 515 40.1474C515 40.7712 514.763 42.0119 514.527 43.2596L512.33 51.7385C512.015 53.2202 511.385 53.915 510.448 53.915C509.897 53.915 509.897 53.993 508.716 53.4471C507.981 53.1352 506.514 52.9792 504.315 52.9792H491.59C489.708 52.9792 489.078 52.6672 489.078 51.4975C489.078 50.9516 489.393 50.4837 490.101 50.0158C491.046 49.314 490.967 49.4699 490.967 45.5778V8.401C490.967 4.5869 490.967 4.66489 490.101 4.04102C489.393 3.57312 489.078 3.10522 489.078 2.55933C489.078 1.38958 489.708 1.07765 491.59 1.07765H504.157C506.748 1.07765 506.827 0.999664 508.48 0.375796C508.795 0.219829 509.11 0.141846 509.346 0.141846C510.527 0.141846 510.92 0.843697 511.622 3.722L513.74 11.655C513.897 12.1229 513.976 12.5908 513.976 12.9808C514.055 13.9166 513.189 14.8453 512.173 14.8453C511.464 14.8453 510.763 14.2214 509.897 12.9808C505.968 6.83424 504.086 5.27458 501.652 5.27458C500.006 5.27458 499.613 5.82046 499.613 8.23086V16.2419C499.613 19.6661 499.927 20.5239 501.416 20.5239C502.597 20.5239 502.912 20.212 503.771 18.3474C504.243 17.4896 504.794 17.0997 505.495 17.0997C506.519 17.0997 507.456 18.1135 508.165 20.056L511.543 28.8468C511.622 29.1588 511.7 29.3927 511.7 29.9386C511.7 31.1084 511.149 31.6472 509.976 31.6472C509.11 31.6472 508.873 31.4132 506.912 29.0028C504.794 26.4364 503.298 25.4227 501.652 25.4227C499.77 25.4227 499.613 25.8906 499.613 31.1793V41.6078V41.629Z" fill="white"/>
<path d="M517.125 43.4935C516.731 41.3951 516.495 39.6794 516.495 38.6727C516.495 37.1202 517.204 36.1064 518.377 36.1064C519.243 36.1064 520.024 37.0422 520.732 38.8287C523.401 46.4569 524.819 48.0875 527.252 48.0875C530 48.0875 531.575 44.8972 531.575 39.2966C531.575 33.696 529.921 30.5057 525.527 26.7696C521.126 23.0335 520.031 21.7149 518.929 19.1414C518.063 17.1989 517.669 15.0154 517.669 12.761C517.669 5.67865 521.992 0.156006 527.488 0.156006C528.354 0.156006 529.37 0.389956 530.551 0.779873C531.023 0.93584 531.338 1.01382 531.496 1.01382C531.811 1.01382 532.283 0.93584 532.834 0.70189C533.228 0.545923 533.543 0.46794 533.936 0.46794C534.96 0.46794 535.589 1.48172 535.897 3.50221L536.921 9.33679C537.157 10.1946 537.157 11.2013 537.157 12.0591C537.157 13.6897 536.606 14.5475 535.432 14.5475C534.172 14.5475 533.55 14.0016 532.054 10.0315C530.558 6.21745 529.227 4.66487 527.574 4.66487C525.921 4.66487 524.747 6.60736 524.747 9.64163C524.747 13.1438 525.928 14.8523 530.086 17.7306C535.425 21.5447 536.842 23.0193 538.724 26.7555C540.213 29.7897 541 33.1359 541 36.95C541 42.5506 539.354 47.4565 536.291 50.8027C534.251 52.9012 531.653 53.993 528.511 53.993C527.173 53.993 526.314 53.837 524.504 53.2131C523.874 52.9792 523.402 52.9012 523.165 52.9012C522.85 52.9012 522.457 52.9792 522.063 53.2131C521.197 53.603 521.118 53.681 520.567 53.681C519.544 53.681 518.921 52.9792 518.606 51.5046L517.111 43.4935H517.125Z" fill="white"/>
</g>
<defs>
<clipPath id="clip0_360_1298">
<rect width="541" height="54" fill="white"/>
</clipPath>
</defs>
</svg>
